<svg xmlns="http://www.w3.org/2000/svg" viewBox="0 0 1600 1200" width="1600" height="1200"><g transform="translate(167.0 132.0) rotate(0.0 625.5 469.0) scale(1.56375 1.5633333333333332)"><svg width="800" height="600" viewBox="0 0 800 600"><g data-name="Слой 2"><g data-name="Слой 1"><g><path d="M761.563 426.365c-2.3 5.339-4.6 10.236-6.84 14.627a300.661 300.661 0 0 1-12.267 21.724 303.663 303.663 0 0 1-18.896 27.032c-30.568 39.1-60.733 58.266-60.733 58.266-3.147 2-19.208 14.121-41.554 20.64-62.175 18.144-122.171-19.05-269.625-2.254-135.155 15.396-201.709 59.961-273.176 11.91-33.03-22.209-52.379-59.518-52.379-59.518a230.312 230.312 0 0 1-19.138-43.723 212.657 212.657 0 0 1-6.85-39.342C-1.874 406.469 23.306 296.44 144.37 181.94 240.083 91.417 335.483 55.076 385.485 36.62 438.321 17.116 498.957-4.551 579.375.836c52.855 3.54 95.388 7.582 135.832 36.415 126.075 89.878 84.552 300.647 46.356 389.114Z" style="fill:#ffbd5c"/><path d="M763.581 420.047c-2.3 5.339-4.6 10.235-6.84 14.627a300.657 300.657 0 0 1-12.267 21.724 303.66 303.66 0 0 1-18.896 27.032c-18.644.474-36.43-.263-52.51-12.647a107.585 107.585 0 0 1-19.784-20.63c-6.638-8.793-12.44-18.344-18.089-27.674a5.219 5.219 0 0 1 .555-6.655 4.86 4.86 0 0 1 5.892-2.033 162.223 162.223 0 0 1 28.893 12.48c-7.092-18.987-15.768-39.522-11.975-58.593a5.474 5.474 0 0 1 9.423-2.495 473.697 473.697 0 0 1 43.4 49.662 544.405 544.405 0 0 1 8.344-78.274c.938-5.15 8.04-5.37 10.31-1.285a340.313 340.313 0 0 1 33.544 84.76ZM459.71 425.03a3.595 3.595 0 0 0-4.362-1.502 120.184 120.184 0 0 0-21.396 9.235c5.256-14.056 11.677-29.26 8.873-43.389a4.056 4.056 0 0 0-6.983-1.842 351.132 351.132 0 0 0-32.14 36.77 402.461 402.461 0 0 0-6.178-57.958c-.693-3.811-5.95-3.975-7.635-.956a252.571 252.571 0 0 0-26.193 68.498c-5.982-9.959-15.814-19.366-23.062-23.157-2.547-1.348-6.614.32-6.15 3.812 1.733 16.627 3.889 36.682 14.313 50.202 8.339 10.644 21.687 9.765 33.707 10.036 17.688.388 34.628 2.457 49.574-9.054 11.976-9.273 20.205-22.821 28.047-35.765a3.866 3.866 0 0 0-.414-4.93ZM165.736 203.001h70.26a16.322 16.322 0 0 1 16.321 16.322v244.836H149.415V219.323a16.322 16.322 0 0 1 16.321-16.322Z" style="fill:#e5a024"/><path d="M292.86 259.866h60.154a20.365 20.365 0 0 1 20.365 20.366V474.69H272.494V280.232a20.365 20.365 0 0 1 20.365-20.366ZM62.977 326.209h49.796a14.447 14.447 0 0 1 14.447 14.447v154.042H48.53V340.656a14.447 14.447 0 0 1 14.447-14.447Z" style="fill:#e5a024"/><path d="M742.456 462.716a303.663 303.663 0 0 1-18.896 27.032c-30.568 39.1-60.733 58.266-60.733 58.266-3.147 2-19.208 14.121-41.554 20.64-62.175 18.144-122.171-19.05-269.625-2.254-135.155 15.396-201.709 59.961-273.176 11.91-33.03-22.209-52.379-59.518-52.379-59.518a230.312 230.312 0 0 1-19.138-43.723q20.535-2.354 41.575-4.528 38.528-3.98 78.69-7.309 11.032-.916 22.195-1.769 50.24-3.838 102.902-6.455 10.048-.505 20.177-.937 49.439-2.164 100.885-3.065 37.817-.647 76.672-.537a3787.67 3787.67 0 0 1 201.215 6.003q46.533 2.622 91.19 6.244Z" style="fill:#e5a024"/><path style="fill:#ffbd5c" d="M164.547 229.328h20.177v36.857h-20.177zm35.31 1.053h11.097v28.432h-11.097zm87.77 51.6h12.106v28.432h-12.106zm30.265 0h17.15v28.432h-17.15zm8.071 49.493h12.106v23.167h-12.106zm-39.345 33.698h12.106v22.114h-12.106zm-79.699-70.555h11.097v27.379h-11.097zM58.618 342.005h10.088v24.22H58.618zm34.301 0h15.133v24.22H92.919zm-8.071 58.971h10.088v17.902H84.848zm-26.23-14.743h8.071v13.69h-8.071z"/></g></g></g></svg></g><g transform="translate(559.0 675.0) rotate(341.8174538593671 291.5 154.5) scale(1.7763829430673836 1.7716264562884139)"><svg width="328.195" height="174.416" viewBox="0 0 328.195 174.416"><path d="M68.153 87.58c-5.78-4-14.06-2.77-17.81 3.39-3.48 5.72-2.13 13.62 3.74 17.13a11.94 11.94 0 0 0 15.75-2.74c0-.06.07-.12.11-.18a2.84 2.84 0 0 0 .28-.33c3.87-5.64 3.98-13.14-2.07-17.27z" fill="#3b301b"/><path d="M64.073 93.08a5.569 5.569 0 0 0-8.24 2.1 5.41 5.41 0 0 0 2.36 7.24 5.609 5.609 0 0 0 6.75-1.08c.132-.098.244-.22.33-.36.086-.117.151-.25.19-.39 1.31-2.46 1.06-5.83-1.39-7.51z" fill="#cf4327"/><path d="m324.353 141.37-18-82.78a2.51 2.51 0 0 0-1.75-1.75l-99.86-31.91-14.42-4.61a2.5 2.5 0 0 0-2.43.64l-58.16 56.08a2.53 2.53 0 0 0 1.1 4.18l66.2 21.15 100.6 32.15 14.2 4.54c.99.255 1.965.565 2.92.93.35.16-.49-.25.62.51 1.56 1.06 3.11 2.15 4.66 3.24.257.321.606.555 1 .67a2.13 2.13 0 0 0 2.82-.95c.485-.579.67-1.353.5-2.09z" fill="#3b301b"/><path d="m271.633 124.52-18-82.78a2.51 2.51 0 0 0-1.75-1.75l-99.87-31.91-14.42-4.61a2.5 2.5 0 0 0-2.43.64l-57.92 55.85-.16.15-.08.08a2.23 2.23 0 0 0-.42 2.84 2.392 2.392 0 0 0 1.53 1.34l102.52 32.76 51.26 16.38 24.68 7.89a39.187 39.187 0 0 1 11.4 5.94c1.9 1.34 4.09-.85 3.66-2.82z" fill="#3b301b"/><path d="M266.843 140.64c1.4-6.28.9-13.92-4.44-18.21-2.83-2.27-6.45-3.36-9.85-4.48l-16.35-5.4a6648.106 6648.106 0 0 0-64.93-21c-43.66-13.95-87.41-27.63-131.1-41.49l-17.91-5.69c-3.12-1-8.21-4.12-11.33-2s-3.85 9.09-5 12.65L.083 73.33a2.54 2.54 0 0 0 1.75 3.08c74.13 23.69 147.93 48.39 222.31 71.28 5.35 1.65 10.72 3.26 16.07 4.91 3.62 1.12 7.29 2.85 11.16 2.37 7.16-.89 12.73-6.67 15.12-13.19a2.69 2.69 0 0 0 .21-.57c.067-.184.114-.375.14-.57z" fill="#CF4327"/><g fill="#cf4327"><path d="M305.013 54.13 136.433.27c-6.14-2-8.77 7.69-2.66 9.64l168.58 53.87c6.14 1.96 8.78-7.69 2.66-9.65zm22.49 105.76c1.41-6.3 1-14-4.41-18.32-2.83-2.28-6.45-3.37-9.85-4.49l-16.35-5.4a6648.106 6648.106 0 0 0-64.93-21c-43.61-13.97-87.4-27.64-131.09-41.47l-17.91-5.69c-3.12-1-8.21-4.12-11.34-2s-3.87 9.16-5 12.74l-5.9 18.46a2.54 2.54 0 0 0 1.75 3.08c74.11 23.66 147.88 48.41 222.3 71.26 5.35 1.65 10.72 3.25 16.08 4.91 3.61 1.12 7.3 2.85 11.17 2.36 7.19-.91 12.76-6.76 15.16-13.31.164-.363.278-.746.34-1.14z"/><path d="m137.763 86.03 54-60.42c4.28-4.78-2.77-11.88-7.07-7.07l-54 60.42c-4.28 4.78 2.77 11.88 7.07 7.07zm124.59 44.18 23.34-73c2-6.14-7.69-8.77-9.64-2.66l-23.34 73c-2 6.14 7.69 8.77 9.64 2.66z"/></g><path d="M128.793 106.96c-5.78-4-14.06-2.77-17.81 3.39-3.48 5.72-2.13 13.62 3.74 17.13a11.94 11.94 0 0 0 15.75-2.74c0-.06.07-.12.11-.18a2.84 2.84 0 0 0 .28-.33c3.87-5.61 3.98-13.14-2.07-17.27zm116.17 37.12c-5.78-4-14.06-2.77-17.81 3.39-3.48 5.72-2.13 13.62 3.74 17.13a11.94 11.94 0 0 0 15.75-2.74c0-.06.07-.12.11-.18a2.84 2.84 0 0 0 .28-.33c3.87-5.61 3.98-13.14-2.07-17.27z" fill="#3b301b"/><path d="M124.723 112.46a5.569 5.569 0 0 0-8.24 2.1 5.41 5.41 0 0 0 2.36 7.24 5.609 5.609 0 0 0 6.75-1.08c.132-.098.244-.22.33-.36.086-.117.151-.25.19-.39 1.3-2.46 1.05-5.83-1.39-7.51zm116.16 37.12a5.569 5.569 0 0 0-8.24 2.1 5.41 5.41 0 0 0 2.36 7.24 5.609 5.609 0 0 0 6.75-1.08c.132-.098.244-.22.33-.36.086-.117.151-.25.19-.39 1.31-2.46 1.08-5.83-1.39-7.51z" fill="#cf4327"/><path d="M53.843 67.27a8.43 8.43 0 0 0-10 3.86 8.52 8.52 0 0 0 3.13 11.2c3.8 2.18 8.22.32 10.75-2.84.141-.149.265-.313.37-.49.129-.182.233-.381.31-.59a8.07 8.07 0 0 0-4.56-11.14zm-34.61-11.06a8.43 8.43 0 0 0-10 3.86 8.52 8.52 0 0 0 3.13 11.2c3.8 2.18 8.22.32 10.75-2.84.141-.149.265-.313.37-.49.129-.182.233-.381.31-.59a8.07 8.07 0 0 0-4.56-11.14z" fill="#eae2c2"/><path d="m28.623 70.27 8.89 2.84c3.07 1 4.39-3.84 1.33-4.82l-8.89-2.84c-3.07-1-4.39 3.84-1.33 4.82zm-2.7 8.45 8.89 2.84c3.07 1 4.39-3.84 1.33-4.82l-8.89-2.84c-3.07-1-4.39 3.84-1.33 4.82zm5.21-16.31 8.89 2.8c3.07 1 4.39-3.84 1.33-4.82l-8.89-2.84c-3.07-1-4.39 3.84-1.33 4.82z" fill="#cf4327"/><path d="m97.193 56.97 35.56-34.43c2.32-2.24-1.22-5.78-3.54-3.54l-35.56 34.43c-2.32 2.24 1.22 5.78 3.54 3.54zm189.58 19.67a652.003 652.003 0 0 1-8.32 33.33 2.57 2.57 0 0 0 1.75 3.08l14 5.72c3 1.22 4.27-3.62 1.33-4.82l-14-5.72 1.75 3.08a648.361 648.361 0 0 0 8.32-33.33c.7-3.14-4.12-4.47-4.82-1.33z" fill="#574730"/><path d="m86.813 76.84 34.54 11.76c3.05 1 4.36-3.79 1.33-4.82l-34.52-11.76c-3.05-1-4.36 3.79-1.33 4.82zm58.65 18.72c27.833 8.26 55.4 17.347 82.7 27.26 3 1.1 4.33-3.73 1.33-4.82a1458.863 1458.863 0 0 0-82.7-27.26c-3.09-.92-4.41 3.91-1.33 4.82zm130.89 43.52 19.79 6.89c4.93 1.72 11.58 5.65 16.84 4.42 3.13-.73 1.81-5.56-1.33-4.82-2.26.53-5.72-1.48-7.88-2.23l-9-3.13-17.09-5.95c-3-1.06-4.35 3.77-1.33 4.82z" fill="#db6653"/></svg></g><g transform="translate(993.0 419.0) rotate(0.0 160.0 73.5) scale(2.9861888764464353 2.987197724039829)"><svg width="107.16" height="49.21" viewBox="0 0 107.16 49.21"><path d="M88.05 25.45a10.14 10.14 0 0 0-5.66-8.57c-5.22-2.58-11.85-1.57-17.85.28a14.53 14.53 0 0 0-9.15-15.87C43.73-3.12 34.11 4.42 28 13.67c-3.41-3.34-9.36-4.81-14.13-4C5.22 11.08-.34 19.21 0 27.67c.36 8.13 5.56 16.39 13.6 18.78a16.48 16.48 0 0 0 11.26-.66 32.55 32.55 0 0 0 5.69-3c5.75 6.15 14.87 6.23 21.16.58 9.33 6.51 22.86 9.34 30-1 8.47 2.15 24.21 2.74 25.4-7.95.96-8.87-10.76-9.97-19.06-8.97z" fill="#eae2c2"/></svg></g><g transform="translate(662.0 303.0) rotate(0.0 141.5 66.5) scale(2.49592097720157 2.502304754379033)"><svg width="113.385" height="53.151" viewBox="0 0 113.385 53.151"><path d="M112.004 20.965c-5.48-13-20.58-12.18-31.41-6.75-3.26-8.06-11-14-19.95-14.21-8.32-.18-15.76 4.83-19.62 11.9-3.25-4.34-7.55-8.08-13.33-7.19-8.2 1.25-11.58 9.35-13.71 16.41-6.45-2.66-12.31 1.24-13.72 8-1.62 7.8 4.44 14 11.87 15.16 1.75.263 3.53.263 5.28 0 1.11-.16 2.29-.71 3.39-.82 2.18-.22 3.07.95 4.4 2.26 3 3 5.1 5.33 9.52 6.25 9.25 1.93 17-3.34 23.59-9.16 7.67 14.39 29.1 13.74 35.51-1.86 6.12.3 12.94-.14 17-5.37 3.19-4.12 3.18-9.87 1.18-14.62z" fill="#eae2c2"/></svg></g></svg>