<svg enable-background="new 0 0 794.146 421.711" height="422" viewBox="0 0 794.146 421.711" width="795" xmlns="http://www.w3.org/2000/svg"><path d="m794.146 275.531c0-19.231-3.729-46.791-19.8-59.8-4.436-10.352-13.117-17.733-21.78-24.515-9.466-7.411-19.248-15.038-30.92-18.585-17.88-13.722-41.239-16.457-62.7-20.578-26.254-5.042-52.734-8.77-79.3-11.722h-.2c-12.549-1.394-26.696-5.04-39.3-2.9-10.8-3.7-22.1-5.3-33.5-4.7-10.431-4.25-22.487-6.031-33.7-5.2-6.969-3.186-14.61-4.267-22.028-5.904-7.785-1.718-15.439-4.123-22.734-7.351-13.554-5.997-24.797-16.042-38.237-22.245-15.415-15.415-36.189-22.82-54.344-34.21-4.787-3.004-9.168-6.741-14.167-9.396-4.633-2.461-9.768-3.789-14.345-6.37-4.646-2.62-8.677-6.195-13.48-8.56-5.237-2.579-10.906-4.167-16.264-6.463-29.548-18.184-64.799-22.714-98.83-23.867-18.319-.621-35.899 2.718-53.336 8.173-16.464 5.15-32.879 11.303-46.657 21.938-7.298 5.633-15.433 10.333-22.188 16.637-7.364 6.872-13.175 15.205-20.289 22.319-3.783 4.863-6.437 10.047-9 15.6-6.695 7.651-9.52 17.485-13.012 26.807-1.948 5.199-4.616 10.168-6.098 15.534-1.45 5.25-1.731 10.771-2.57 16.134-1.73 11.069-3.893 22.022-4.665 33.218-.727 10.541-1.816 21.763 2.245 31.808-1.5 11.9-.1 22.2 4.5 33.9 0 11.747 3.415 23.135 9.4 33.2.925 15.72 10.42 29.288 19.045 41.835 8.804 12.808 18.249 25.727 31.355 34.465 12.881 17.174 32.643 27.525 51.734 36.315 22.002 10.129 45.513 16.57 69.266 21.041 24.959 4.698 50.284 6.178 75.631 6.729 25.892.563 51.961 1.325 77.811-.689 6.299-.491 12.596-1.565 18.919-1.611 6.149-.045 12.247 1.034 18.389.953 5.955-.078 11.832-1.176 17.799-.864 5.992.313 11.813 1.031 17.83.719 12.04-.624 23.816-.031 35.854.229 12.836.278 25.699-.196 38.535-.352 12.249-.15 24.424-1.062 36.663-.067 12.491 1.016 24.986 1.415 37.503.615 25.764-1.647 51.416-5.283 76.772-10.084 27.237-5.157 54.296-12.04 80.072-22.352 21.569-8.629 42.478-21.661 55.123-41.681v-.1c3.688-5.711 5.896-11.791 8.9-17.8 5.628-15.477 8.727-30.455 9.2-47z" fill="#f1c517"/><path d="m152.246 273.131c-.318-5.73-.006-11.475-.049-17.209-.03-3.963.194-8.63-2.651-11.791 1.9-4.8 1.4-8.9-1.5-12.9 1.9-4.3.6-10.3-2.1-12.9 3.018-6.036-.585-12.843-2.563-18.585-2.119-6.151-3.378-12.711-6.837-18.315-.825 2.09-1.811 4.197-2.3 6.4-4.203 2.101-7.161 6.888-9.247 10.936-1.583 3.072-2.18 8.14-5.153 10.264-1.3 1.2-2.4 2.7-3.2 4.3-.62 1.653-1 3.124-1 4.9.2.8-.2 1.7-1 2.1-2.741 2.349-3.417 5.321-3.9 8.7.1.9 0 1.8-.3 2.6-3.929 5.612-4.808 12.304-6.6 18.742-.735 2.641-4.513 9.245-2.1 11.658-.85-1.914-2.614-3.173-2.8-5.4-1.965-7.736-5.887-14.807-8.767-22.211-1.445-3.714-3.293-7.271-4.661-11.009-1.259-3.441-1.805-7.272-4.372-10.079.22-4.397-2.642-8.342-4.429-12.148-2.253-4.799-4.307-9.701-6.455-14.548-3.064-6.914-6.888-14.331-14.716-16.604l.5 1.5c0 .1.1.3.2.4-1.937 2.195-2.936 4.679-3.5 7.5 0 1.834.153 3.511.6 5.3-3.04 3.908-3.321 8.376-2 13-5.735 6.257-1.165 17.027-2.6 24.2-.875 2.771-.898 5.608-.2 8.4.3.8.6 1.6 1 2.4-3.192 6.385-.459 17.363 1.2 24 1.113 9.457 3.69 18.021 5.6 27.3-4.912-5.403-8.402-11.937-13.3-17.4-1.1-1.6-2.7-2.9-4.5-3.7-2.322-.696-2.974-4.572-4.214-6.38-2.544-3.71-6.378-7.027-9.447-10.306-6.458-6.901-13.46-13.234-20.139-19.913l-6.1-4.8c.689 2.949 1.466 5.921 1.771 8.943.193 1.911-.382 4.446 1.129 5.957.478 2.294 1.822 4.278 2.375 6.55.57 2.343.374 4.794.763 7.165.719 4.39 2.588 8.578 4.081 12.739 3.443 9.594 6.767 19.219 10.968 28.518 8.119 17.975 19.243 34.461 31.913 49.529.2.3.5.5.7.7l2.2-1.9 44.3 24.5 1 2.7c8.126-2.032 14.532-7.759 20.935-12.827 5.109-4.044 12.065-8.777 12.065-16.073 1.56-.78 3.176-1.966 4.2-3.4 2.82-3.076 1.833-7.496 5.1-10.4 2.226-2.449 2.912-6.613 2.5-9.8 4.829-4.14 5.09-11.104 5.737-16.95.895-8.084 2.419-16.191 1.863-24.353z" fill="#382d16"/><path d="m763.846 356.331 2.6-1.2c-14.078-4.692-29.029.577-43.188 2.091-7.543.807-15.117 1.384-22.679 1.984-6.718.533-13.792.557-20.034 3.425-8.623-1.808-17.251.574-25.913.319-8.52-.251-15.784-.985-24.287.781-10.958-3.461-22.603-2.314-33.899-2.08-11.938.247-23.873-.359-35.793-.939-11.385-.554-22.823-1.134-34.118-2.731-10.397-1.47-21.28-4.539-31.79-2.35-7.706-3.468-16.072-5.003-24.5-4.2-7.473-3.736-16.256-5.656-24.6-4.8-8.689-5.43-19.493-6.288-29.315-8.245-12.164-2.424-24.081-6.726-36.585-7.055-8.503-4.38-17.967-6.226-27.258-8.119-9.796-1.996-19.454-4.683-29.316-6.351-20.034-3.39-40.219-7.06-60.499-8.561-10.012-.741-20.028-1.013-29.957-2.617-9.868-1.594-19.693-3.008-29.721-2.62-10.447.404-20.692 2.363-31.054 3.555-9.991 1.15-20.216.775-30.063 3.034-5.733 1.315-11.192 3.547-17.062 4.264-5.212.637-10.344.933-15.526 1.849-9.595 1.695-19.955 2.067-28.544 7.166-15.34.902-29.002 18.742-18.578 32.444 5.145 6.763 12.919 10.97 19.726 15.807 7.464 5.304 14.662 12.5 24.152 13.749 6.046 6.255 13.957 10.009 22.5 11.4 6.755 5.488 15.292 8.226 23.9 8.8 8.321 6.512 19.558 7.222 29.589 8.874 12.127 1.998 24.548 5.071 36.911 3.526 9.342 3.737 19.625 3.316 29.5 3.5 10.842.202 21.682.485 32.525.625 22.165.286 44.307-.591 66.453-1.368 21.861-.767 43.694-.271 65.557-.038 10.615.113 21.288-1.621 31.87-1.221 4.353.165 8.65 1.419 13.02 1.194 4.591-.237 9.427-2.81 13.974-.991 7.339 1.727 14.85-.015 22.251-.167 7.065-.145 14.072 1.05 21.113 1.413 15.612.804 31.497 1.096 47.036-.846 19.438 0 38.726-2.875 57.888-5.852 19.205-2.983 38.341-6.525 57.186-11.307 17.886-4.539 35.445-10.405 52.008-18.598 8.107-4.01 16.008-8.378 23.46-13.515 5.406-3.726 12.639-8.105 13.657-15.228z" fill="#382d16"/><path d="m602.446 185.331c.3-.2.5-.5.6-.8.1-.2.1-.5 0-.8-.3-.6-.8-1-1.5-1.2 4.017-2.511-2.524-10.818-3.1-13.7-.1-.3-.1-.6-.2-.8-.1-.3-.3-.5-.4-.8-.796-.776-1.63-1.509-2.5-2.2-1.479-1.972-2.953-2.753-4.6-4.4-.921-.69-4.047-4.416-5.5-2.6 1.341-1.073-3.851-1.335-3.537-1.175-.872-.444.391-1.829-1.063-2.025-.584-.079-1.626 1.274-2.1.8-.714-1.249-.991-1.564-2.3-2-.2-.1-.5-.1-.8-.2-1.598-.32-2.895.336-4.4-.5h-.1c-.453.189-.847.458-1.181.806-.322.493-.641.391-.956-.306-1.361-.017-2.583-.785-4.362-.3-.2.1-.4.2-.7.2-.2.1-.4.1-.6.2-1.838.368-3.075-.408-4.8.8-1.111.555-1.187.717-2.6 1-1.211 0-2.308.636-3.2 1.4-.3.4-.8.7-1.2 1-2.446.978-3.272 1.872-5.1 3.7-1.427 1.07-2.58 1.67-3.6 3.2-.1.1-.1.2-.1.3l2.2 1.8-2.2-1.8c-.951.951-1.827 1.901-2.3 3.2-.467 2.337-4.707 5.644-1.7 7.9-1.94.306-2.774 5.521-1.3 6.7-4.06 1.353-.26 18.674 4.4 17.8-.3.5-.5.9-.6 1.5-.558 1.674 1.971 1.445 2.6 1.3-.6 1.2-.6 2-.1 2.5.7.5 1.7.5 2.4 0-.935 2.183 1.619 4.965 4 4.7.2 0 .3.1.3.3.355 1.419 1.55 1.72 2.7.8 0 .8.1 1.6.7 2 .858.39 3.47 2.23 4.5 1.2.4-.3.5-.3.7.1.778 2.724 1.168-.208 2.502.354.799.538 1.583 1.097 2.352 1.677.337-.138.646-.321.926-.55 2.499.753 6.271.244 8.42 1.318-.469-.176 2.425-.837 2.072-.787 1.376-.194 2.811.434 4.428-.213.4 0 .7-.3.8-.7.275-.687 1.822-.2 2.2-.2 1.391-.306 2.499-.899 3.5-1.9.1-.3.2-.6.1-.9 0-.888 2.156.789 2.8-.5.722-2.167 2.996-.541 2.7-3.5.6.3 1.4.3 2-.1.178-.621.278-1.254.3-1.9.434-.317.895-.585 1.384-.805.818-.913 1.984-1.697 2.816-2.695.4-.7.8-1.4 1.2-2 .955-1.092.317-2.183-.5-3 2.359 0 2.954-1.446 1.3-3.1 2.14-.329 2.845-1.841.9-3.3 1.801-.225 2.2-1.732 2.2-3.4.2-.9-.1-1.8-.6-2.5-.201-.699-.301-.799-.201-.899z" fill="#eb472c"/><path d="m681.546 205.931.4-2.2c-3.9-.827-7.6-.8-11.6-.8-2.338-.292-4.658.406-6.992.426-2.243.02-4.431-.47-6.682-.24-2.057.21-3.948 1.011-6.052.865-1.928-.134-3.474-1.181-5.375-.152-.4.3-.9.4-1.3.1-2.8-1.5-4.2-1.4-6.9.3-2.034-1.627-4.517-.434-6.805-.597-1.906-.135-4.043-1.415-5.895-.303l-3.2 1.4c.411 1.038 1.625 2.566 1.2 3.7-1.552 3.104-2.487 12.54.8 14.8-2.4 2.8-2.4 5.2-.1 8.1-2.2 2.9-2.2 4.8 0 8.2-4.624 3.083.281 11.158-1 15-1.2 2.1-.9 4.8.7 6.6-3.289 3.289-1.729 8.839-1.408 12.894.475 5.995.155 12.02.027 18.023-.266 12.455-.538 24.93-.019 37.382-.112 1.451 1.26 2.299 1.353 3.65.098 1.437-1.01 2.001-1.182 3.282-.232 1.732.912 2.485 1.009 4.112.094 1.584-.814 2.947-.845 4.497-.035 1.724 1.046 3.073 1.065 4.759.019 1.678-.938 3.03-1.28 4.611-.967 4.469.795 9.006-.02 13.489 0 1.342 1.125 2.276 1.2 3.6.097 1.708-.766 3.299-1.055 4.942-.723 4.124.155 8.317.155 12.458 19.716-.268 39.483-.7 59.2-.7 0-7.223.544-14.583.2-21.8.2-2.2-.3-4.4-1.3-6.4 2.433-1.684.976-4.967.762-7.281-.281-3.026.512-5.985-.662-8.919 4.638-2.319 1.902-12.561 1.602-16.451-.385-4.984-.389-10.118-.183-15.111.172-4.175 1.061-8.919-1.419-12.638 2.2-1.9 2.2-4.5 0-8.1 2.3-1.6 2-5.5 0-8.1.9-.4 1.4-1.3 1.5-2.2 0-3.642-.537-7.266-.496-10.909.032-2.868.827-6.02-.604-8.691 2.275-2.275 2.26-11.443.6-14.1-1.206-1.508.69-3.596.61-5.201-.054-1.088-2.314-3.057-1.01-4.099.8-.9 1.2-2 1.1-3.2.1-1.9-1.7-3.7-1.4-4.3 4.863-7.022-1.66-17.297 1.301-24.698z" fill="#382d16"/><path d="m795.646 278.931c0-.7 0-1.3 0-2 .3-1.4-.5-2.8-1.8-3.3 2.3-1.8 2.2-3.4-.2-4.9 2.3-1.7 1.8-4-.5-4.9 2.333-1.945 1.291-6.786-.4-8.9-1.346-1.346 1.149-2.808-1.6-4.4 1.704-2.272-.091-5.749-.8-8.2-.876 0-10.299 1.352-10.5 1.1-.894-1.565-3.444-.398-4.69-.289-2.943.257-5.849-.554-8.797-.424.571-.025-4.936.23-4.213.713-.7-.6-1.6-1-2.5-1.1-3.833 0-5.46.268-8.4 2.6l.2.3.1.1c1.275 1.02-.263 3.184-.324 4.375-.107 2.086.596 4.158.662 6.245.067 2.136-1.176 6.542.462 8.18-.7.5-1.2 1.3-1.3 2.2 0 .943.815 1.958.859 2.885-.006-.133-.493 2.567-.489 2.53.198.268.395.536.593.804.177.783-.053 1.468-.688 2.056-.191 1.567-.275 3.027-.275 4.625-.2 1.3.5 2.7 1.8 3.2-.7.4-1.3 1.1-1.7 1.9-1.125-.921-4.652.524-6.087.549-3.065.055-6.058-.868-9.117-.875.113 0-5.874.64-5.296 1.026-.6-.6-1.5-1-2.3-1.1-1.154 0-4.314-.486-5.3.5-.036.045-9.916-.427-9.3.6-1.025-1.282-7.221-.84-8.2.2-.4-.7-1.2-1.2-2-1.3-.769 0-4.958.037-5.2.4l-2.9 2.3.3.3c.4.5 1 .9.7 1.4-1.316 1.535-1 3.537-1 5.4-.2 1.3.5 2.5 1.8 2.9-2.4 1.6-2.4 2.9-.1 4.5-2.2 1.6-2.2 2.7 0 4.6-2.288 1.307-2.327 5.859-1 7.9.882 1.764-1.969 2.243.7 4.2-3.178 1.986-1.966 7.748-1.69 10.771.453 4.952 2.011 10.664.39 15.529-.591 2.76.826 5.415 0 8.1-.2 1.3-.2 2.7-.1 4.1-.102.82.871 1.013 1.046 1.658.195.719-.281 1.019-.23 1.577.125 1.37.077 4.642-1.015 5.665 3.199 1.899 4.078 1.432 7.294 1.262 1.527 1.482 4.219 1.091 6.106.837 1.3-.4 2.6-.4 3.9 0 1.872-1.808 5.004-.236 7.163.052 3.295.439 6.722.111 10.022-.095 6.849-.428 13.987-2.22 20.814-.757h.3v4.1l5-3.9c1.76-1.056 2.331-3.004 4.4-3.8 0 0 .1 0 .1-.1.331-.744.597-1.511.8-2.3.453-.245.923-.45 1.411-.615 1.608-1.533 3.393-2.851 4.977-4.42 3.497-3.463 7.108-7.239 9.512-11.566l-.4.5v-.1l.4-.5c3.276-5.46 6.731-11.428 8.9-17.5 0-.1 0-.3 0-.4.1-.1.2-.3.2-.5.7-1.4 1.3-3 1.6-4.5.156-2.182 1.656-3.634 2-5.7.2-.6.3-1.3.5-2 .6-1.2.2-2.7-.8-3.5 2.199-.77 3.651-7.724 2.4-9.6 4.942-.988 2.642-15.925 3.8-19.4-.1-.498 0-1.098 0-1.798z" fill="#382d16"/><path d="m615.746 288.031c-.352-1.194-.672-2.398-1-3.6-1.286.416-2.545.618-3.9.712.385-.027-5.027.486-4.5.788-3.317-2.488-8.762-1.07-12.552-.727-.902.081-6.716 1.114-6.948.727-1.033-1.107-8.269-.868-9.4.2-.5-.8-1.4-1.2-2.3-1.3-.892 0-5.407-.093-5.9.4l-3.1 2.1c1.999 1.8.1 5.966.1 8.5-.3 1.4.5 2.8 1.8 3.4-2.4 1.8-2.4 3.4-.1 5.2-2.2 1.9-2.2 3.1 0 5.3-2.774 1.585-2.607 12.255-.3 14.1-3.489 2.181-1.068 14.129-1.023 17.572.095 7.266 1.628 14.886-.277 22.028-.2 1.6-.2 3.1-.1 4.7-.1.9.3 1.8 1.1 2.3.701.561-1.01 3.046-1.067 3.774.228.525.578.953 1.05 1.285.551.559.459 1.077-.275 1.553-.097 3.374-1.165 8.138-.709 11.789.4 1.4.4 2.9 0 4.3.919 1.292 1.611 2.684.2 3.9l2.8 2.1c.3.3.8.4 1.2.5 6.813 0 13.655.132 20.464-.129 6.287-.241 12.662-1.578 18.936-.471 1.6.1 3.2.1 4.8-.1.1 0 .2-.1.3-.1 0-.2.1-.3.1-.5.492-4.181.499-9.509.2-13.7.1-1.6-.4-3.2-1.3-4.5 2.35-.362.867-9.13.1-10.5.861 0 1.4-.842 1.4-1.6.71-6.037-1.262-12.811 0-18.7.804-2.413.51-6.649-1.4-8.4 2.2-1 2.2-2.7 0-5.2 2.3-.8 2-3.4 0-5.3 4.493-1.926-.99-7.709 1.1-9.8 1-1.7.9-2.5-.7-4.4.8-.4 1.3-1.2 1.4-2.1 0-2.04.672-5.385-.7-7.1.011.011-.363-5.753-.4-6.1.064.605.741-3.524.715-3.27-.494-.455-.833-.998-1.015-1.63.83-.829 1.297-1.829 1.4-3-.199-1.901.201-3.601-.199-5.001z" fill="#382d16"/><path d="m560.246 248.431c-.948-3.791.099-5.565-2-9.1-2.504 1.998-7.363.2-10.7.2-.6-.1-1.2.1-1.7.5-1.777 1.777-5.313.12-7.345.007-1.742-.096-3.412.543-5.148.422-1.57-.11-2.803-1.18-4.307-.029-.729.729-3.997-1.217-5.9.4-2.3-2.628-9.986-.479-12.4 1 2.748 3.358-2.926 10.937 2 13.4-2.4 2-2.4 3.8-.1 5.9-2.2 2.1-2.2 3.5 0 6-2.625 1.875-1.618 5.953-1.551 8.758.184.547.367 1.094.551 1.642.1.761-.117 1.452-.65 2.07.137 1.505.079 2.344 1.35 3.53-2.449 1.837-1.57 5.317-1.354 7.881.369 4.367.259 8.745.375 13.121.209 7.87 1.509 15.921-.321 23.697-.2 1.8-.2 3.5-.1 5.3-.174 1.741.618 3.63.722 5.339.078 1.273-1.254 1.12-.122 2.561.2.2.3.4.5.5.755.754-.551 1.442-.604 2.083-.102 1.23.507 2.104.623 3.41.278 3.115-1.388 6.075-1.019 9.207.4 1.6.4 3.3 0 4.9 1.192 3.968-.135 8.326 0 12.5 7.355-.254 14.716-.327 22.07-.616 6.872-.271 13.883-1.425 20.73-.284 1.949.108 3.88-.2 5.8-.2 0-.2.1-.4.1-.6.51-4.847.505-10.518.2-15.4.1-1.8-.3-3.5-1.3-5 2.515-.774 1.036-9.995.1-11.8 2.389-.597 1.379-6.213 1.3-7.8-.945-4.727-.549-9.651-.1-14.413.321-3.396 1.277-7.495-1.3-10.287 2.2-1.2 2.2-3.1 0-5.9 2.3-1 2-3.9 0-6 3.472-1.488 2.048-13.693.4-16 2.599-1.624 1.251-6.98 1.1-9.438-.258-.535-.541-1.056-.85-1.563.176-.467.388-.917.633-1.352.505-.675.6-1.434.283-2.278-.456-.727-.903-1.459-1.342-2.195.401-.504.797-1.013 1.188-1.525.361-.79.383-1.579.069-2.369-.318-.569-.676-1.11-1.075-1.625-.291-.761-.005-1.425.856-1.994.295-2.195.901-4.307.338-6.56z" fill="#382d16"/><path d="m657.546 258.731h7.5v14.5h-7.5z" fill="#fff"/><path d="m596.146 302.331h7.5v14.5h-7.5z" fill="#fff"/><path d="m525.546 255.431h7.5v14.5h-7.5z" fill="#fff"/><path d="m729.746 297.531h7.5v14.5h-7.5z" fill="#fff"/><g fill="#f1c517"><path d="m643.946 228.731c-.563-.188 1.307-.047 0-.7l-1-1c0 .1-.1.2-.1.1-.185-.739-2.472-.614-2.5-.6.312 0-1.172.128-1.1.2-.465-.582-1.3-.235-1.3.3-.2-.8-.4-.8-.6-.1 0 .1-.1.2-.1 0-.3-.7-.4-.7-.7.2-.41-1.642-.244-.1-.6-.1-.122-.208-.255-.408-.4-.6-.107-.054-1.423 1.554-1.5 1.7.571.285-1.195 1.363.7 1.6-1.2.3-1.2.5-.1.8-1.1.3-1.1.5 0 .8-.593.148-1.586.779-.5 1.4.1 0 .1 0 0 .1-.6.2-.4.4.4.6-.455.114-1.113.481-.7 1.1.048.048.048 1.852 0 1.9-.2.2-.2.5 0 .7.2.2.2.5 0 .6-.793.793.427 2.5.5 2.5-1.814.454.368.507.188.688-.265-.011-.494.093-.688.312.246.112.479.245.7.4-.851.851-.824 1.537.1 2.8l.7-.3h.1c.2-.2.5-.3.7 0 .14-.18.24-.38.3-.6.785 0-.172 1.548 1.4.5.2-.2.5-.2.7 0 .3.2.6.2.9 0 .17-.17 3.678-.131 3.8-.1.2.1.5.1.8 0s0 0 0-.1c.311-.934.114-2.405-.6-3 .238.067.475.133.713.2.117-.026-.397-1.515-.613-1.7.233.033.467.067.7.1 0-.163.107-2.093 0-2.2-.334-1.001.713-1.394-.7-2 1.1.1 1.1-.2 0-.8 1.2.1 1-.3 0-.8.996 0 1.08-.59.6-1.4.5-.2.4-.3-.4-.7 1.531 0 .18-1.54.3-1.6.7-.7.6-.9-.1-1.2z"/><path d="m644.046 260.131c.2-.106.399-.211.599-.317.05-.135-.957-.401-.986-.371.354-.355 1.146-.133.188-.612l-1-1c0 .1-.1.2-.1.1-.185-.739-2.472-.614-2.5-.6.312 0-1.172.128-1.1.2-.465-.582-1.3-.235-1.3.3-.2-.8-.4-.8-.6-.1 0 .1-.1.2-.1 0-.3-.7-.4-.7-.7.2-.086-.252-.173-.504-.259-.756-.199-.06-2.02 1.142-2.241 1.556.571.285-1.195 1.363.7 1.6-1.2.3-1.2.5-.1.8-1.1.3-1.1.5 0 .8-.593.148-1.586.779-.5 1.4.1 0 .1 0 0 .1-.6.2-.4.4.4.6-.455.114-1.113.481-.7 1.1.048.048.048 1.852 0 1.9-.2.2-.2.5 0 .7.2.2.2.5 0 .6-.793.793.427 2.5.5 2.5-1.814.454.368.507.188.688-.265-.011-.494.093-.688.313.246.112.479.245.7.4-.851.851-.824 1.537.1 2.8l.7-.3h.1c.2-.2.5-.3.7 0 .14-.18.24-.38.3-.6.785 0-.172 1.548 1.4.5.2-.2.5-.2.7 0 .3.2.6.2.9 0 .17-.17 3.678-.131 3.8-.1.2.1.5.1.8 0s0 0 0-.1c.311-.934.114-2.405-.6-3 .238.067.475.133.713.2.117-.026-.397-1.515-.613-1.7.233.033.467.067.7.1 0-.163.107-2.093 0-2.2-.334-1.001.713-1.394-.7-2 1.1.1 1.1-.2 0-.8 1.2.1 1-.3 0-.8.996 0 1.08-.59.6-1.4.5-.2.4-.3-.4-.7 1.681-.001-.117-2.001.399-2.001z"/><path d="m604.746 330.631c.2-.106.399-.211.599-.317.05-.135-.957-.401-.986-.371.354-.355 1.146-.133.188-.612l-1-1c0 .1-.1.2-.1.1-.185-.739-2.472-.614-2.5-.6.312 0-1.172.128-1.1.2-.465-.582-1.3-.235-1.3.3-.2-.8-.4-.8-.6-.1 0 .1-.1.2-.1 0-.3-.7-.4-.7-.7.2-.086-.252-.173-.504-.259-.756-.199-.06-2.02 1.142-2.241 1.556.571.285-1.195 1.363.7 1.6-1.2.3-1.2.5-.1.8-1.1.3-1.1.5 0 .8-.593.148-1.586.779-.5 1.4.1 0 .1 0 0 .1-.6.2-.4.4.4.6-.455.114-1.113.481-.7 1.1.048.048.048 1.852 0 1.9-.2.2-.2.5 0 .7.2.2.2.5 0 .6-.793.793.427 2.5.5 2.5-1.814.454.368.507.188.688-.265-.011-.494.093-.688.313.246.112.479.245.7.4-.851.851-.824 1.537.1 2.8l.7-.3h.1c.2-.2.5-.3.7 0 .14-.18.24-.38.3-.6.785 0-.172 1.548 1.4.5.2-.2.5-.2.7 0 .3.2.6.2.9 0 .17-.17 3.678-.131 3.8-.1.2.1.5.1.8 0s0 0 0-.1c.311-.934.114-2.405-.6-3 .238.067.475.133.713.2.117-.026-.397-1.515-.613-1.7.233.033.467.067.7.1 0-.163.107-2.093 0-2.2-.334-1.001.713-1.394-.7-2 1.1.1 1.1-.2 0-.8 1.2.1 1-.3 0-.8.996 0 1.08-.59.6-1.4.5-.2.4-.3-.4-.7 1.78-.001-.246-1.679.399-2.001z"/><path d="m718.946 298.931c.2-.106.399-.211.599-.317.05-.135-.957-.401-.986-.371.354-.355 1.146-.133.188-.612l-1-1c0 .1-.1.2-.1.1-.185-.739-2.472-.614-2.5-.6.312 0-1.172.128-1.1.2-.465-.582-1.3-.235-1.3.3-.2-.8-.4-.8-.6-.1 0 .1-.1.2-.1 0-.3-.7-.4-.7-.7.2-.086-.252-.173-.504-.259-.756-.199-.06-2.02 1.142-2.241 1.556.571.285-1.195 1.363.7 1.6-1.2.3-1.2.5-.1.8-1.1.3-1.1.5 0 .8-.593.148-1.586.779-.5 1.4.1 0 .1 0 0 .1-.6.2-.4.4.4.6-.455.114-1.113.481-.7 1.1.048.048.048 1.852 0 1.9-.2.2-.2.5 0 .7.2.2.2.5 0 .6-.793.793.427 2.5.5 2.5-1.814.454.368.507.188.688-.265-.011-.494.093-.688.313.246.112.479.245.7.4-.851.851-.824 1.537.1 2.8l.7-.3h.1c.2-.2.5-.3.7 0 .14-.18.24-.38.3-.6.785 0-.172 1.548 1.4.5.2-.2.5-.2.7 0 .3.2.6.2.9 0 .17-.17 3.678-.131 3.8-.1.2.1.5.1.8 0s0 0 0-.1c.311-.934.114-2.405-.6-3 .238.067.475.133.713.2.117-.026-.397-1.515-.613-1.7.233.033.467.067.7.1 0-.163.107-2.093 0-2.2-.334-1.001.713-1.394-.7-2 1.1.1 1.1-.2 0-.8 1.2.1 1-.3 0-.8.996 0 1.08-.59.6-1.4.5-.2.4-.3-.4-.7 1.681-.001-.117-2.001.399-2.001z"/><path d="m534.146 290.231c.2-.106.399-.211.599-.317.05-.135-.957-.401-.986-.371.354-.355 1.146-.133.188-.612l-1-1c0 .1-.1.2-.1.1-.185-.739-2.472-.614-2.5-.6.312 0-1.172.128-1.1.2-.465-.582-1.3-.235-1.3.3-.2-.8-.4-.8-.6-.1 0 .1-.1.2-.1 0-.3-.7-.4-.7-.7.2-.086-.252-.173-.504-.259-.756-.199-.06-2.02 1.142-2.241 1.556.571.285-1.195 1.363.7 1.6-1.2.3-1.2.5-.1.8-1.1.3-1.1.5 0 .8-.593.148-1.586.779-.5 1.4.1 0 .1 0 0 .1-.6.2-.4.4.4.6-.455.114-1.113.481-.7 1.1.048.048.048 1.852 0 1.9-.2.2-.2.5 0 .7.2.2.2.5 0 .6-.793.793.427 2.5.5 2.5-1.814.454.368.507.188.688-.265-.011-.494.093-.688.313.246.112.479.245.7.4-.851.851-.824 1.537.1 2.8l.7-.3h.1c.2-.2.5-.3.7 0 .14-.18.24-.38.3-.6.785 0-.172 1.548 1.4.5.2-.2.5-.2.7 0 .3.2.6.2.9 0 .17-.17 3.678-.131 3.8-.1.2.1.5.1.8 0s0 0 0-.1c.311-.934.114-2.405-.6-3 .238.067.475.133.713.2.117-.026-.397-1.515-.613-1.7.233.033.467.067.7.1 0-.163.107-2.093 0-2.2-.334-1.001.713-1.394-.7-2 1.1.1 1.1-.2 0-.8 1.2.1 1-.3 0-.8.996 0 1.08-.59.6-1.4.5-.2.4-.3-.4-.7 1.78-.001-.246-1.679.399-2.001z"/><path d="m776.346 260.431c0-.536.126-.817-.2-1.3.5-.2.4-.3-.4-.7 1.531 0 .18-1.54.3-1.6.2-.106.399-.211.599-.317.05-.135-.957-.401-.986-.371.354-.355 1.146-.133.188-.612l-1-1c0 .1-.1.2-.1.1-.185-.739-2.472-.614-2.5-.6.312 0-1.172.128-1.1.2-.465-.582-1.3-.235-1.3.3-.2-.8-.4-.8-.6-.1 0 .1-.1.2-.1 0-.3-.7-.4-.7-.7.2-.086-.252-.173-.504-.259-.756-.199-.06-2.02 1.142-2.241 1.556.571.285-1.195 1.363.7 1.6-1.2.3-1.2.5-.1.8-1.1.3-1.1.5 0 .8-.593.148-1.586.779-.5 1.4.1 0 .1 0 0 .1-.6.2-.4.4.4.6-.455.114-1.113.481-.7 1.1.048.048.048 1.852 0 1.9-.2.2-.2.5 0 .7.2.2.2.5 0 .6-.793.793.427 2.5.5 2.5-1.814.454.368.507.188.688-.265-.011-.494.093-.688.313.246.112.479.245.7.4-.851.851-.824 1.537.1 2.8l.7-.3h.1c.2-.2.5-.3.7 0 .14-.18.24-.38.3-.6.785 0-.172 1.548 1.4.5.2-.2.5-.2.7 0 .3.2.6.2.9 0 .17-.17 3.678-.131 3.8-.1.2.1.5.1.8 0s0 0 0-.1c.311-.934.114-2.405-.6-3 .238.067.475.133.713.2.117-.026-.397-1.515-.613-1.7.233.033.467.067.7.1 0-.163.107-2.093 0-2.2-.334-1.001.713-1.394-.7-2 1.1.1 1.1-.2 0-.8 1.2.1 1-.3 0-.8.499-.401.899-.401.899-.501z"/></g><path d="m105.846 123.131c0-.3 0-.6-.1-.9v-.2l-.1-.3c-.1-.2-.1-.4-.2-.5-.2-.4-.3-.7-.6-1-.965-1.446-2.914-2.3-4.6-2.3-2.207.339-4.658 0-6.9 0-.8-.1-1.6.1-2.5 1.4-.2-.7-.5-1.4-.9-2-.809-.809-5.25-1.607-6.2-1.2 0-1-.1-1.9-.9-2.3-1.1-.8-2.4-1.5-3.7-1.9-2.733-.497-16.998-6.424-17.5.1-1.802-1.622-2.866-1.441-3.8.8-1.256-1.974-2.242-1.846-3.6-.1-.514-2.057-2.56-3.851-4.8-4.1-.384 0-.961-2.3-2.8-2.3 1.111-2.962-4.188-6.08-3.9-6.8.508-2.161-2.835-2.708-2.6-3.1.479-1.118-.258-2.908-1.8-2.6-1.522 0-2.253-2.591-3.116-3.406-1.643-1.55-4.178-1.589-5.784-3.194-.4-.3-.9-.1-1.4.2l-2.7 1c.1.4.3.8 0 1-2.113 1.057-2.584 2.453-3.7 4.5-.3.4-.3.8-.1 1.2.429 1.286-1.408 1.787-1.766 2.726-.545 1.429-.229 3.056-.916 4.45.106-.215-3.283 4.616-2.118 4.324-1.9.7-2.1 1.5-1 3.4-.8.1-1.5.5-1.9 1.2-.012.749.088 1.482.3 2.2-.285.432-.677.728-1.178.889-.575 2.652-5.244 8.588-2.222 10.511-2.7.7-3.1 1.9-1.3 3.9-2.6.8-2.8 1.8-1.1 4-.8.1-1.7.4-1.8 1 0 .2-.1.4-.1.5l-1.5 4.9c3.106-.896 6.296-1.639 9.222-3.047.298-.657.757-1.108 1.378-1.353.726.299 1.392.199 2-.3.5-.6.7-1.3.7-2 3.623 2.265 9.99-5.522 14.6-4.6.5.2 1 .3 1.5.2 3.353.671 7.971 1.185 10.8 3.7 1.2.7 2.4 1.3 3.8 1.5 1.124.421 4.949.304 6.066.198.28-.527.679-.935 1.197-1.223 1.039.33 2.105.496 3.197.498.211-.389.428-.774.653-1.155.604-.139 2.383.173 3.088-.219 1.1-.4 2.2-.9 3.1-1.5.729-.833 1.93-1.151 3-1.1 2.455-.409 3.912-.8 6.5-.8 2.874-1.437 6.713.863 9.534 1.544 4.241 1.024 9.064 1.557 13.266.156 2.272-.394 5.244-.788 6.4-3.1.501-.751.8-1.806.8-2.7.199-.199.199-.499.099-.699z" fill="#fff"/></svg>