<svg enable-background="new 0 0 1534.88 1063.639" height="1064" viewBox="0 0 1534.88 1063.639" width="1535" xmlns="http://www.w3.org/2000/svg" xmlns:xlink="http://www.w3.org/1999/xlink"><linearGradient id="a"><stop offset="0" stop-color="#fff"/><stop offset=".5108" stop-color="#efefef"/><stop offset="1" stop-color="#fff"/></linearGradient><linearGradient id="b" gradientUnits="userSpaceOnUse" x1="1394.3468" x2="1408.6816" xlink:href="#a" y1="359.3028" y2="359.3028"/><linearGradient id="c" gradientUnits="userSpaceOnUse" x1="1422.1543" x2="1436.4891" xlink:href="#a" y1="359.3028" y2="359.3028"/><linearGradient id="d" gradientUnits="userSpaceOnUse" x1="1449.9617" x2="1464.2965" xlink:href="#a" y1="359.3028" y2="359.3028"/><linearGradient id="e" gradientUnits="userSpaceOnUse" x1="1477.7692" x2="1492.104" xlink:href="#a" y1="359.3028" y2="359.3028"/><linearGradient id="f" gradientUnits="userSpaceOnUse" x1="1394.7891" x2="1409.1239" xlink:href="#a" y1="414.7174" y2="414.7174"/><linearGradient id="g" gradientUnits="userSpaceOnUse" x1="1422.5966" x2="1436.9314" xlink:href="#a" y1="414.7174" y2="414.7174"/><linearGradient id="h" gradientUnits="userSpaceOnUse" x1="1450.4039" x2="1464.7388" xlink:href="#a" y1="414.7174" y2="414.7174"/><linearGradient id="i" gradientUnits="userSpaceOnUse" x1="1478.2114" x2="1492.5463" xlink:href="#a" y1="414.7174" y2="414.7174"/><linearGradient id="j" gradientUnits="userSpaceOnUse" x1="1394.7891" x2="1409.1239" xlink:href="#a" y1="464.0699" y2="464.0699"/><linearGradient id="k" gradientUnits="userSpaceOnUse" x1="1422.5966" x2="1436.9314" xlink:href="#a" y1="464.0699" y2="464.0699"/><linearGradient id="l" gradientUnits="userSpaceOnUse" x1="1450.4039" x2="1464.7388" xlink:href="#a" y1="464.0699" y2="464.0699"/><linearGradient id="m" gradientUnits="userSpaceOnUse" x1="1478.2114" x2="1492.5463" xlink:href="#a" y1="464.0699" y2="464.0699"/><linearGradient id="n" gradientUnits="userSpaceOnUse" x1="1394.7891" x2="1409.1239" xlink:href="#a" y1="513.6663" y2="513.6663"/><linearGradient id="o" gradientUnits="userSpaceOnUse" x1="1422.5966" x2="1436.9314" xlink:href="#a" y1="513.6663" y2="513.6663"/><linearGradient id="p" gradientUnits="userSpaceOnUse" x1="1450.4039" x2="1464.7388" xlink:href="#a" y1="513.6663" y2="513.6663"/><linearGradient id="q" gradientUnits="userSpaceOnUse" x1="1478.2114" x2="1492.5463" xlink:href="#a" y1="513.6663" y2="513.6663"/><linearGradient id="r" gradientUnits="userSpaceOnUse" x1="1394.7891" x2="1409.1239" xlink:href="#a" y1="560.2302" y2="560.2302"/><linearGradient id="s" gradientUnits="userSpaceOnUse" x1="1422.5966" x2="1436.9314" xlink:href="#a" y1="560.2302" y2="560.2302"/><linearGradient id="t" gradientUnits="userSpaceOnUse" x1="1450.4039" x2="1464.7388" xlink:href="#a" y1="560.2302" y2="560.2302"/><linearGradient id="u" gradientUnits="userSpaceOnUse" x1="1478.2114" x2="1492.5463" xlink:href="#a" y1="560.2302" y2="560.2302"/><linearGradient id="v" gradientUnits="userSpaceOnUse" x1="1394.7891" x2="1409.1239" xlink:href="#a" y1="609.5827" y2="609.5827"/><linearGradient id="w" gradientUnits="userSpaceOnUse" x1="1422.5966" x2="1436.9314" xlink:href="#a" y1="609.5827" y2="609.5827"/><linearGradient id="x" gradientUnits="userSpaceOnUse" x1="1450.4039" x2="1464.7388" xlink:href="#a" y1="609.5827" y2="609.5827"/><linearGradient id="y" gradientUnits="userSpaceOnUse" x1="1478.2114" x2="1492.5463" xlink:href="#a" y1="609.5827" y2="609.5827"/><linearGradient id="z" gradientUnits="userSpaceOnUse" x1="1394.7891" x2="1409.1239" xlink:href="#a" y1="659.1791" y2="659.1791"/><linearGradient id="A" gradientUnits="userSpaceOnUse" x1="1422.5966" x2="1436.9314" xlink:href="#a" y1="659.1791" y2="659.1791"/><linearGradient id="B" gradientUnits="userSpaceOnUse" x1="1450.4039" x2="1464.7388" xlink:href="#a" y1="659.1791" y2="659.1791"/><linearGradient id="C" gradientUnits="userSpaceOnUse" x1="1478.2114" x2="1492.5463" xlink:href="#a" y1="659.1791" y2="659.1791"/><linearGradient id="D" gradientUnits="userSpaceOnUse" x1="319.5897" x2="405.6933" xlink:href="#a" y1="479.2067" y2="479.2067"/><linearGradient id="E" gradientUnits="userSpaceOnUse" x1="171.2582" x2="321.9095" xlink:href="#a" y1="506.0411" y2="506.0411"/><linearGradient id="F" gradientUnits="userSpaceOnUse" x1="341.6471" x2="366.3256" xlink:href="#a" y1="512.723" y2="512.723"/><linearGradient id="G" gradientUnits="userSpaceOnUse" x1="278.8372" x2="478.2213" xlink:href="#a" y1="644.3804" y2="644.3804"/><linearGradient id="H" gradientUnits="userSpaceOnUse" x1="637.3708" x2="836.7551" xlink:href="#a" y1="644.3804" y2="644.3804"/><linearGradient id="I"><stop offset="0" stop-color="#428dfc"/><stop offset="1" stop-color="#1d72d8"/></linearGradient><linearGradient id="J" gradientUnits="userSpaceOnUse" x1="478.2213" x2="499.9951" xlink:href="#I" y1="631.1294" y2="631.1294"/><linearGradient id="K" gradientTransform="matrix(-1 0 0 1 -2104.9485 0)" gradientUnits="userSpaceOnUse" x1="-2742.3193" x2="-2720.5457" xlink:href="#I" y1="631.1294" y2="631.1294"/><linearGradient id="L" gradientUnits="userSpaceOnUse" x1="1230.7991" x2="1318.2183" xlink:href="#I" y1="456.2503" y2="456.2503"/><linearGradient id="M" gradientUnits="userSpaceOnUse" x1="1248.3824" x2="1253.3824" xlink:href="#a" y1="489.6578" y2="489.6578"/><linearGradient id="N" gradientUnits="userSpaceOnUse" x1="1272.84" x2="1277.84" xlink:href="#a" y1="489.8053" y2="489.8053"/><linearGradient id="O" gradientUnits="userSpaceOnUse" x1="1297.2972" x2="1302.2972" xlink:href="#a" y1="489.8053" y2="489.8053"/><linearGradient id="P" gradientUnits="userSpaceOnUse" x1="1023.6901" x2="1095.8367" xlink:href="#a" y1="206.0252" y2="206.0252"/><linearGradient id="Q" gradientUnits="userSpaceOnUse" x1="1023.6901" x2="1095.8367" xlink:href="#a" y1="274.5058" y2="274.5058"/><linearGradient id="R" gradientUnits="userSpaceOnUse" x1="1045.3877" x2="1074.139" xlink:href="#a" y1="406.1598" y2="406.1598"/><linearGradient id="S" gradientUnits="userSpaceOnUse" x1="1045.3877" x2="1074.139" xlink:href="#a" y1="306.9131" y2="306.9131"/><linearGradient id="T" gradientUnits="userSpaceOnUse" x1="1045.3877" x2="1074.139" xlink:href="#a" y1="355.5353" y2="355.5353"/><linearGradient id="U" gradientUnits="userSpaceOnUse" x1="1045.3877" x2="1074.139" xlink:href="#a" y1="456.7842" y2="456.7842"/><linearGradient id="V" gradientUnits="userSpaceOnUse" x1="1045.3877" x2="1074.139" xlink:href="#a" y1="507.4086" y2="507.4086"/><linearGradient id="W" gradientUnits="userSpaceOnUse" x1="1045.3877" x2="1074.139" xlink:href="#a" y1="558.0331" y2="558.0331"/><linearGradient id="X" gradientUnits="userSpaceOnUse" x1="1045.3877" x2="1074.139" xlink:href="#a" y1="608.6575" y2="608.6575"/><linearGradient id="Y" gradientUnits="userSpaceOnUse" x1="1045.3877" x2="1074.139" xlink:href="#a" y1="659.282" y2="659.282"/><linearGradient id="Z"><stop offset="0" stop-color="#aed4fe"/><stop offset="1" stop-color="#74b4f7"/></linearGradient><linearGradient id="aa" gradientTransform="matrix(1 0 0 -1 .000095 -10124.4404)" gradientUnits="userSpaceOnUse" x1="812.405" x2="861.105" xlink:href="#Z" y1="-10755.6396" y2="-10755.6396"/><linearGradient id="ab" gradientTransform="matrix(1 0 0 -1 .000095 -10124.4404)" gradientUnits="userSpaceOnUse" x1="1486.1804" x2="1534.8804" xlink:href="#Z" y1="-10755.4678" y2="-10755.4678"/><linearGradient id="ac" gradientUnits="userSpaceOnUse" x1="458.1244" x2="1063.8481" y1="826.1077" y2="826.1077"><stop offset="0" stop-color="#b9d3fd"/><stop offset="1" stop-color="#89b3f4"/></linearGradient><path d="m1509.715 320.664h-131.982v136.12h-64.642v279.495h174.195v-.33h22.429z" fill="#d6d7d8"/><path d="m1394.347 342.055h14.335v34.495h-14.335z" fill="url(#b)"/><path d="m1422.154 342.055h14.335v34.495h-14.335z" fill="url(#c)"/><path d="m1449.962 342.055h14.335v34.495h-14.335z" fill="url(#d)"/><path d="m1477.769 342.055h14.335v34.495h-14.335z" fill="url(#e)"/><path d="m1394.789 397.47h14.335v34.495h-14.335z" fill="url(#f)"/><path d="m1422.597 397.47h14.335v34.495h-14.335z" fill="url(#g)"/><path d="m1450.404 397.47h14.335v34.495h-14.335z" fill="url(#h)"/><path d="m1478.211 397.47h14.335v34.495h-14.335z" fill="url(#i)"/><path d="m1394.789 446.822h14.335v34.495h-14.335z" fill="url(#j)"/><path d="m1422.597 446.822h14.335v34.495h-14.335z" fill="url(#k)"/><path d="m1450.404 446.822h14.335v34.495h-14.335z" fill="url(#l)"/><path d="m1478.211 446.822h14.335v34.495h-14.335z" fill="url(#m)"/><path d="m1394.789 496.419h14.335v34.495h-14.335z" fill="url(#n)"/><path d="m1422.597 496.419h14.335v34.495h-14.335z" fill="url(#o)"/><path d="m1450.404 496.419h14.335v34.495h-14.335z" fill="url(#p)"/><path d="m1478.211 496.419h14.335v34.495h-14.335z" fill="url(#q)"/><path d="m1394.789 542.983h14.335v34.495h-14.335z" fill="url(#r)"/><path d="m1422.597 542.983h14.335v34.495h-14.335z" fill="url(#s)"/><path d="m1450.404 542.983h14.335v34.495h-14.335z" fill="url(#t)"/><path d="m1478.211 542.983h14.335v34.495h-14.335z" fill="url(#u)"/><path d="m1394.789 592.335h14.335v34.495h-14.335z" fill="url(#v)"/><path d="m1422.597 592.335h14.335v34.495h-14.335z" fill="url(#w)"/><path d="m1450.404 592.335h14.335v34.495h-14.335z" fill="url(#x)"/><path d="m1478.211 592.335h14.335v34.495h-14.335z" fill="url(#y)"/><path d="m1394.789 641.931h14.335v34.495h-14.335z" fill="url(#z)"/><path d="m1422.597 641.931h14.335v34.495h-14.335z" fill="url(#A)"/><path d="m1450.404 641.931h14.335v34.495h-14.335z" fill="url(#B)"/><path d="m1478.211 641.931h14.335v34.495h-14.335z" fill="url(#C)"/><path d="m1377.732 456.784h-25.7v-115.624l25.7-19.871z" fill="#f4f4f4"/><path d="m69.276 355.535h66.135v380.122h-66.135z" fill="#bdd5fd"/><path d="m-46.555 529.562h294.282v117.91h-294.282z" fill="#bdd5fd" transform="matrix(0 -1 1 0 -487.9305 689.1028)"/><path d="m833.126 742.567h12.602v-317.14l-12.602-12.358z" fill="#7db7fc"/><path d="m644.701 416.705h11.771v-22.154l-11.771-8.536z" fill="#7db7fc"/><path d="m713.394 416.705h11.771l.001-22.154-11.772-8.536z" fill="#7db7fc"/><path d="m782.088 416.705h11.77v-22.154l-11.77-8.536z" fill="#7db7fc"/><path d="m558.296 413.069h274.829v329.498h-274.829z" fill="#e3edfe" transform="matrix(-1 -0 0 -1 1391.422 1155.6359)"/><path d="m746.721 386.015h35.367v356.552h-35.367z" fill="#bdd5fd" transform="matrix(-1 -0 0 -1 1528.8085 1128.5815)"/><path d="m678.028 386.015h35.367v356.552h-35.367z" fill="#bdd5fd" transform="matrix(-1 -0 0 -1 1391.422 1128.5815)"/><path d="m609.334 386.015h35.367v356.552h-35.367z" fill="#bdd5fd" transform="matrix(-1 -0 0 -1 1254.0356 1128.5815)"/><path d="m290.057 184.476h146.537v551.913h-146.537z" fill="#e3edfe"/><path d="m319.59 216.712h86.104v524.99h-86.104z" fill="url(#D)"/><path d="m328.97 232.823h68.273v15.783h-68.273z" fill="#bdd5fd"/><path d="m328.97 270.058h68.273v15.783h-68.273z" fill="#bdd5fd"/><path d="m328.97 307.294h68.273v15.783h-68.273z" fill="#bdd5fd"/><path d="m328.97 344.529h68.273v15.783h-68.273z" fill="#bdd5fd"/><path d="m328.97 381.765h68.273v15.783h-68.273z" fill="#bdd5fd"/><path d="m328.97 419h68.273v15.783h-68.273z" fill="#bdd5fd"/><path d="m328.97 456.235h68.273v15.783h-68.273z" fill="#bdd5fd"/><path d="m328.97 493.471h68.273v15.783h-68.273z" fill="#bdd5fd"/><path d="m328.97 530.706h68.273v15.783h-68.273z" fill="#bdd5fd"/><path d="m328.97 567.942h68.273v15.783h-68.273z" fill="#bdd5fd"/><path d="m328.97 605.177h68.273v15.783h-68.273z" fill="#bdd5fd"/><path d="m328.97 642.412h68.273v15.783h-68.273z" fill="#bdd5fd"/><path d="m328.97 679.648h68.273v15.783h-68.273z" fill="#bdd5fd"/><path d="m328.97 716.883h68.273v15.783h-68.273z" fill="#bdd5fd"/><path d="m445.99 460.433h10.795v53.379h-10.795z" fill="#428dfc"/><path d="m366.083 493.285h127.441v247.379h-127.441z" fill="#428dfc"/><path d="m159.598 274.695h173.973v461.254h-173.973z" fill="#d6d7d8"/><path d="m318.91 712.079h-144.652c-1.657 0-3-1.343-3-3v-406.075c0-1.657 1.343-3 3-3h144.652c1.657 0 3 1.343 3 3v406.075c0 1.657-1.344 3-3 3zm-141.652-6h138.652v-400.075h-138.652z" fill="url(#E)"/><path d="m374.403 735.949h-40.833v-461.254l40.833 24z" fill="#d6d7d8"/><path d="m363.326 724.079h-18.678c-1.657 0-3-1.343-3-3v-416.711c0-1.076.576-2.069 1.51-2.604s2.082-.529 3.01.018l18.678 10.979c.917.538 1.48 1.522 1.48 2.586v405.732c0 1.657-1.344 3-3 3zm-15.679-6h12.678v-401.016l-12.678-7.452z" fill="url(#F)"/><path d="m9.715 572.857h43.916v162.964h-43.916z" fill="#fff"/><path d="m53.622 612.434h117.919v123.389h-117.919z" fill="#d5e4fe"/><path d="m9.715 572.374h111.79l50.038 40.064h-117.912-.01l-43.906-35.156v-4.425z" fill="#428dfc"/><path d="m103.492 629.164h11.905v40.701h-11.905z" fill="#fff"/><path d="m125.693 629.164h11.905v40.701h-11.905z" fill="#fff"/><path d="m147.732 629.164h11.905v40.701h-11.905z" fill="#fff"/><path d="m28.844 670.663v65.158h-19.129v-91.506c11.071 3.714 19.129 14.103 19.129 26.348z" fill="#89b3f4"/><path d="m475.615 560.022h169.086v175.927h-169.086z" fill="#e3edfe"/><path d="m478.221 735.949h-199.384v-147.137l199.384-36z" fill="url(#G)"/><path d="m495.334 616.683h125.925v39.142h-125.925z" fill="#afccfc"/><path d="m478.221 648.673-98.233 11.842v-39.142l98.233-14.939z" fill="#bdd5fd"/><path d="m836.755 735.949h-199.384v-183.137l199.384 36z" fill="url(#H)"/><path d="m637.371 648.673 98.233 11.842v-39.142l-98.233-14.939z" fill="#bdd5fd"/><path d="m499.995 735.947h-21.774v-183.135l21.774 7.21z" fill="#d6d7d8"/><path d="m615.597 735.947h21.774v-183.135l-21.774 7.21z" fill="#d6d7d8"/><path d="m499.995 655.825-21.774-7.181v-42.21l21.774 10.249z" fill="url(#J)"/><path d="m615.597 655.825 21.774-7.181v-42.21l-21.774 10.249z" fill="url(#K)"/><path d="m1318.218 736.15h-87.419v-475.799l87.419-84z" fill="url(#L)"/><path d="m1248.382 274.695h5v429.926h-5z" fill="url(#M)"/><path d="m1272.84 274.842h5v429.926h-5z" fill="url(#N)"/><path d="m1297.297 274.842h5v429.926h-5z" fill="url(#O)"/><path d="m1026.136 735.949h-50.572l-23.484-530.232 71.496 18.761z" fill="#bdd5fd"/><path d="m978.794 735.949h-134.571v-530.232h107.857z" fill="#e3edfe"/><path d="m982.337 244.599-3.02 18.05c-4.87-3.69-12.67-7.12-24.88-10.13-.31-.08-.64-.16-.96-.24-8.01-1.94-16.92-3.39-26.49-4.36-17.71-1.78-37.65-1.89-58.31-.23-8.35.67-16.53 1.6-24.45 2.78v-17.16c7.61-1.09 15.35-1.95 23.08-2.57 10.72-.85 21.28-1.25 31.49-1.22 20.1.09 38.82 1.88 54.75 5.34.53.11 1.05.22 1.57.34.79.19 1.58.37 2.35.55 10.2 2.46 18.7 5.69 24.87 8.85z" fill="#bdd5fd"/><path d="m981.857 281.895-3.02 18.04c-4.55-3.45-11.64-6.65-22.49-9.52-1.08-.29-2.2-.57-3.35-.85-8.01-1.93-16.92-3.38-26.49-4.35-17.71-1.79-37.65-1.89-58.31-.24-8.18.66-16.2 1.57-23.97 2.71v-17.16c7.46-1.05 15.03-1.89 22.6-2.49 10.72-.86 21.28-1.26 31.49-1.22 20.76.08 40.06 2 56.32 5.68.27.06.55.13.82.19.52.12 1.03.24 1.53.36 10.2 2.46 18.7 5.69 24.87 8.85z" fill="#bdd5fd"/><path d="m981.857 319.186-3.02 18.04c-4.27-3.24-10.8-6.27-20.57-8.99-1.66-.48-3.42-.93-5.271-1.38-8.01-1.93-16.92-3.39-26.49-4.35-17.71-1.79-37.65-1.89-58.31-.24-8.18.66-16.2 1.57-23.97 2.7v-17.15c7.46-1.05 15.03-1.89 22.6-2.49 10.72-.86 21.28-1.26 31.49-1.22 20.76.08 40.06 2 56.32 5.68.79.18 1.58.36 2.35.55.13.03.26.06.38.09 10.031 2.44 18.401 5.63 24.491 8.76z" fill="#bdd5fd"/><path d="m982.337 356.48-3.02 18.04c-4.06-3.08-10.16-5.97-19.15-8.6-2.07-.6-4.3-1.19-6.69-1.77-8.01-1.94-16.92-3.39-26.49-4.35-17.71-1.79-37.65-1.89-58.31-.24-8.35.67-16.53 1.6-24.45 2.78v-17.16c7.61-1.09 15.35-1.94 23.08-2.56 10.72-.86 21.28-1.26 31.49-1.23 20.76.09 40.06 2.01 56.32 5.69.79.18 1.58.36 2.35.55.61.15 1.21.29 1.8.45 9.4 2.38 17.269 5.42 23.07 8.4z" fill="#bdd5fd"/><path d="m981.687 393.319-2.83 18.07c-3.61-2.69-8.83-5.21-16.23-7.5v-.01c-.2-.06-.4-.12-.6-.19-2.73-.83-5.76-1.63-9.11-2.39-8.04-1.86-16.96-3.21-26.54-4.09-17.73-1.6-37.67-1.49-58.31.38-8.09.73-16.15 1.724-23.84 2.924v-2.304-14.86c7.35-1.11 14.82-2.01 22.3-2.68 10.71-.97 21.27-1.49 31.47-1.56 20.76-.13 40.09 1.58 56.37 5.1.8.17 1.59.34 2.36.52 1.38.31 2.72.65 4.03.99.12.03.25.06.37.1 8.29 2.18 15.28 4.85 20.56 7.5z" fill="#bdd5fd"/><path d="m844.227 420.959c7.32-1.14 14.76-2.07 22.2-2.76 10.71-1.01 21.27-1.55 31.47-1.66 20.75-.2 40.08 1.45 56.39 4.9.8.18 1.58.35 2.37.53 2.04.46 4.03.95 5.94 1.48.14.04.28.08.42.12 7.43 2.04 13.74 4.49 18.62 6.9l-2.77 18.08c-3.27-2.41-7.84-4.68-14.13-6.78-.27-.09-.54-.18-.81-.26-3.23-1.04-6.88-2.03-11.04-2.97-8.04-1.82-16.96-3.15-26.55-3.99-17.74-1.53-37.67-1.36-58.31.57-8.08.77-16.13 1.754-23.8 2.994v-1.944z" fill="#bdd5fd"/><path d="m981.677 468.552-3.1 18.02c-2.8-2.14-6.58-4.2-11.62-6.14-.35-.14-.71-.27-1.08-.41-3.69-1.37-8.02-2.68-13.09-3.93-8.01-1.97-16.91-3.46-26.48-4.47-17.7-1.87-37.65-2.05-58.31-.49-8.09.61-16.05 1.47-23.77 2.56v-17.13c7.42-1.01 14.95-1.81 22.48-2.38 10.72-.81 21.29-1.17 31.5-1.09 20.75.18 40.05 2.18 56.29 5.94.79.18 1.58.36 2.35.55 2.7.67 5.3 1.39 7.75 2.14.12.04.25.08.37.12 6.629 2.07 12.27 4.4 16.71 6.71z" fill="#bdd5fd"/><path d="m979.267 506.449-3.34 17.98c-1.82-1.43-4.07-2.83-6.83-4.2-.39-.19-.79-.39-1.2-.58-4.51-2.12-10.28-4.13-17.62-6.04-7.98-2.08-16.86-3.69-26.41-4.83-17.68-2.09-37.62-2.55-58.3-1.27-7.25.45-14.4 1.12-21.34 1.95v-17.09c6.7-.79 13.49-1.4 20.27-1.82 10.74-.67 21.31-.88 31.51-.66 20.75.45 40.02 2.71 56.2 6.68.8.2 1.58.38 2.35.59 4.42 1.14 8.51 2.43 12.23 3.79.06.02.11.04.17.06 4.75 1.75 8.889 3.61 12.31 5.44z" fill="#bdd5fd"/><path d="m863.992 209.827h11.975v306.762h-11.975z" fill="#e3edfe"/><path d="m893.441 209.827h11.975v306.762h-11.975z" fill="#e3edfe"/><path d="m1107.749 735.949h-95.972v-433.579c0-2.145 1.739-3.884 3.884-3.884h88.205c2.145 0 3.884 1.739 3.884 3.884v433.579z" fill="#d6d7d8"/><path d="m1093.102 175.724h-66.676v-59.798c0-18.412 14.926-33.338 33.338-33.338 18.412 0 33.338 14.926 33.338 33.338z" fill="#d6d7d8"/><path d="m1095.837 292.538h-72.147v-139.687c0-18.412 14.926-33.338 33.338-33.338h5.47c18.412 0 33.338 14.926 33.338 33.338v139.687z" fill="url(#P)"/><path d="m1095.837 302.181h-72.147v-139.687c0-18.412 14.926-33.338 33.338-33.338h5.47c18.412 0 33.338 14.926 33.338 33.338v139.687z" fill="#d6d7d8"/><path d="m1095.837 297.99h-72.147v-13.631c0-18.412 14.926-33.338 33.338-33.338h5.47c18.412 0 33.338 14.926 33.338 33.338v13.631z" fill="url(#Q)"/><path d="m1095.837 433.375h-72.147v-139.686c0-18.412 14.926-33.338 33.338-33.338h5.47c18.412 0 33.338 14.926 33.338 33.338v139.686z" fill="#d6d7d8"/><circle cx="1059.763" cy="406.16" fill="url(#R)" r="14.376"/><circle cx="1059.763" cy="306.913" fill="url(#S)" r="14.376"/><circle cx="1059.763" cy="355.535" fill="url(#T)" r="14.376"/><circle cx="1059.763" cy="456.784" fill="url(#U)" r="14.376"/><circle cx="1059.763" cy="507.409" fill="url(#V)" r="14.376"/><circle cx="1059.763" cy="558.033" fill="url(#W)" r="14.376"/><circle cx="1059.763" cy="608.658" fill="url(#X)" r="14.376"/><circle cx="1059.763" cy="659.282" fill="url(#Y)" r="14.376"/><path d="m1066.158 102.95h-12.79v-98.818c0-2.282 1.85-4.132 4.132-4.132h4.526c2.282 0 4.132 1.85 4.132 4.132z" fill="#d6d7d8"/><path d="m1293.271 653.85h80.079v82.244h-21.318v-43.935c0-10.28-8.333-18.721-18.721-18.721s-18.721 8.333-18.721 18.721v43.935h-21.318v-82.244z" fill="#d5e4fe"/><path d="m1333.31 673.545c10.28 0 18.721 8.441 18.721 18.721v43.935h-37.443v-43.935c.001-10.388 8.442-18.721 18.722-18.721z" fill="#fff"/><path d="m1294.786 659.153 74.776 76.941h-74.776z" fill="#d5e4fe"/><path d="m1301.711 577.991h63.198v64.929h-16.773v-34.737c0-8.116-6.601-14.826-14.717-14.826s-14.717 6.601-14.717 14.717v34.629h-16.99v-64.712z" fill="#d5e4fe"/><path d="m1333.31 593.466c8.116 0 14.717 6.601 14.717 14.717v34.629h-29.435v-34.629c.001-8.116 6.602-14.717 14.718-14.717z" fill="#fff"/><path d="m1303.984 587.839 51.727 53.242h-51.727z" fill="#d5e4fe"/><path d="m1314.589 528.969h37.443v38.417h-9.956v-20.561c.216-4.87-3.571-8.874-8.441-9.09s-8.874 3.571-9.09 8.441v.649 20.561h-9.956z" fill="#d5e4fe"/><path d="m1333.31 538.168c4.87 0 8.765 3.896 8.765 8.765v20.561h-17.531v-20.561c.001-4.869 3.897-8.765 8.766-8.765z" fill="#fff"/><path d="m1315.347 533.19 33.222 34.196h-33.222z" fill="#d5e4fe"/><path d="m1318.485 522.585h29.651l8.333 6.926h-46.317z" fill="#a1c3fc"/><path d="m1330.605 463.174h5.303v59.41h-5.303z" fill="#bdd5fd"/><path d="m1308.204 567.169h50.212l13.96 11.688h-78.24z" fill="#a1c3fc"/><path d="m1301.603 640.215h63.414l17.856 14.934h-99.125z" fill="#a1c3fc"/><path d="m1095.545 384.834h157.456v351.115h-157.456z" fill="#d5e4fe"/><path d="m1167.713 416.256h85.302v15.313h-85.302z" fill="#fff"/><path d="m1167.713 444.704h85.302v15.313h-85.302z" fill="#fff"/><path d="m1167.713 473.137h85.302v15.313h-85.302z" fill="#fff"/><path d="m1167.713 501.585h85.302v15.313h-85.302z" fill="#fff"/><path d="m1167.713 530.019h85.302v15.313h-85.302z" fill="#fff"/><path d="m1167.713 558.466h85.302v15.313h-85.302z" fill="#fff"/><path d="m1167.713 586.9h85.302v15.313h-85.302z" fill="#fff"/><path d="m1167.713 615.347h85.302v15.313h-85.302z" fill="#fff"/><path d="m1167.713 643.781h85.302v15.313h-85.302z" fill="#fff"/><path d="m1167.713 672.228h85.302v15.313h-85.302z" fill="#fff"/><path d="m1222.389 396.574-59.046 315.031h-48.129v-312.839z" fill="#d5e4fe"/><path d="m248.149 670.006c-.088.135-.048.316.088.404.135.087.317.048.405-.087s.048-.316-.087-.405c-.138-.085-.318-.047-.406.088zm6.05 3.83c-.085.143-.046.326.087.425.142.081.322.034.404-.106.09-.123.065-.295-.059-.386-.008-.007-.018-.012-.03-.018-.134-.089-.315-.05-.402.085zm-11.032 25.719c-.162.033-.266.193-.232.353.026.149.169.248.317.221.012 0 .025-.005.038-.01.157-.03.26-.177.232-.334-.034-.161-.193-.265-.355-.23zm18.149-37.732c-.129.09-.163.268-.073.399.091.129.268.162.4.074.132-.089.162-.268.073-.399-.078-.128-.247-.169-.375-.09-.01.006-.017.01-.025.016zm-14.662 22.93c-.163-.017-.313.091-.35.25-.028.165.085.321.251.35.165.028.323-.084.35-.25.016-.163-.093-.313-.251-.35zm7.058 1.233c-.16-.023-.307.09-.33.25-.038.151.054.305.206.344.008.001.016.004.025.006.165.022.317-.086.35-.25.016-.163-.093-.313-.251-.35zm-.733-54.702c-.263.156-.352.496-.195.761.002.005.008.01.01.017.156.259.495.344.754.188 0 0 .001-.002.003-.003.263-.156.352-.496.195-.761-.002-.005-.008-.01-.01-.017-.156-.259-.495-.344-.754-.188-.003 0-.003 0-.003 0zm7.051 11.588c-.266.162-.354.507-.193.776s.507.354.778.194c0 0 .005-.002.009-.006.259-.156.344-.494.188-.753 0-.001-.002-.001-.002-.001-.168-.268-.509-.358-.78-.21zm-47.468 22.786c-.302-.068-.604.118-.677.419-.08.288.085.586.371.668.011.003.02.006.029.007.303.068.604-.118.677-.42.076-.296-.103-.598-.4-.674zm26.392 6.459c-.298-.074-.596.104-.672.401 0 0-.003.013-.003.019-.08.289.085.586.371.668.011.003.02.006.029.007.306.063.609-.119.697-.418.065-.303-.121-.604-.422-.677zm13.188 3.22c-.302-.072-.607.117-.677.419-.072.303.118.605.42.676.297.077.599-.102.677-.398.08-.3-.097-.609-.398-.691-.009-.004-.016-.005-.022-.006zm-22.138-32.839c-.174.253-.109.599.146.774.254.175.6.109.775-.144.171-.249.111-.587-.134-.764-.255-.176-.605-.116-.787.134zm10.963 8.025c-.174.253-.109.599.146.774.254.175.6.109.775-.144.171-.249.111-.587-.134-.764-.255-.176-.604-.117-.787.134zm10.944 8.025c-.179.26-.111.614.148.793.249.172.592.119.777-.12.193-.249.146-.606-.104-.8-.249-.193-.608-.146-.801.103-.01.008-.015.015-.02.024zm-34.297 34.031c-.305.054-.513.341-.462.649.042.299.323.506.622.463 0 0 .003 0 .006-.001.296-.027.513-.289.488-.584-.002-.014-.003-.028-.005-.044-.058-.303-.341-.512-.649-.483zm26.851-4.103c-.294.038-.504.305-.466.6 0 .008.002.017.006.025.035.305.314.522.62.487.01-.001.019-.001.028-.003.308-.05.516-.339.467-.645-.05-.308-.341-.515-.646-.466-.005.002-.007.003-.009.002zm-6.307-56.49c-.182.206-.165.52.037.705.204.183.52.167.706-.036.186-.205.167-.519-.037-.705-.205-.183-.52-.167-.706.036zm9.052 8.061c-.182.206-.165.52.037.705.199.19.515.184.706-.014.19-.199.185-.515-.015-.705-.006-.008-.016-.014-.023-.022-.196-.185-.506-.174-.692.021-.003.004-.006.011-.013.015zm9.381 7.913c-.125-.003-.245.053-.327.151-.182.206-.165.52.037.705.21.19.53.177.723-.032l.003-.004c.111-.124.156-.295.116-.459v-.021c-.019-.092-.073-.173-.154-.224-.106-.106-.257-.149-.398-.116zm-34.854 31.967c-.281.027-.49.266-.48.546.014.267.24.471.508.459.008 0 .014-.002.022-.002.277-.01.491-.241.479-.516 0-.003-.001-.005-.001-.005-.024-.276-.255-.486-.528-.482zm24.209-1.36c-.277.01-.491.241-.482.517 0 0 .001.006.001.01.004.26.221.467.481.462.016 0 .032 0 .048-.004.277-.01.491-.241.482-.517-.001-.003-.001-.006-.001-.01-.028-.269-.26-.47-.529-.458zm12.084-.691c-.279.025-.485.269-.459.547.023.27.257.473.529.459.272-.025.481-.252.48-.526-.027-.28-.268-.49-.55-.48zm-26.461-22.6c-.263-.082-.545.06-.633.321-.09.258.044.54.302.63.263.087.549-.044.653-.299.085-.267-.055-.558-.322-.652zm11.452 4.005c-.246-.097-.527.025-.623.272-.003.008-.006.02-.01.027-.09.258.044.54.302.63.263.087.549-.044.653-.299.082-.26-.062-.542-.322-.63zm11.452 3.987c-.259-.089-.539.049-.629.307-.087.255.045.534.299.626.257.092.541-.038.637-.295.094-.258-.038-.541-.296-.636-.004-.001-.006-.001-.011-.002zm-10.076 33.053c-.249.121-.358.42-.242.675.129.248.434.347.685.218.237-.123.339-.407.233-.651-.109-.248-.401-.364-.649-.257-.01.007-.02.011-.027.015zm8.312-32.57c-.16-.023-.307.09-.331.25-.023.16.091.308.25.331.16.023.307-.09.33-.25.026-.161-.088-.308-.249-.331zm7.088.954c-.165-.013-.309.107-.331.271-.023.159.091.308.25.33.152.028.299-.075.326-.229.001-.008.003-.014.003-.023.029-.162-.08-.317-.242-.35-.001.002-.003.001-.006.001zm1.097-13.614c-.071.143-.025.315.107.405.134.084.314.042.398-.094.003-.004.005-.009.008-.014.084-.131.048-.305-.083-.39-.009-.005-.016-.01-.023-.014-.144-.08-.326-.033-.407.107zm-3.712 26.919c-.158.039-.251.197-.211.354.04.158.198.251.356.211.15-.026.249-.168.222-.316 0-.011-.006-.025-.01-.038-.035-.154-.193-.25-.345-.214-.006 0-.008.002-.012.003zm4.329-46.39c-.12.13-.112.336.019.456.002.001.004.004.006.008.131.127.339.125.466-.004.005-.006.012-.014.018-.02.121-.13.112-.336-.019-.456-.002-.001-.004-.004-.006-.008-.142-.124-.355-.112-.484.024zm-11.417 32.167c-.173-.001-.314.14-.315.311-.001.013.001.026.003.04.011.183.168.323.351.313.183-.018.326-.168.333-.352-.015-.187-.181-.328-.372-.312.003-.001.003-.001 0 0zm8.154-.397c-.19.015-.329.179-.313.37v.001c.011.183.168.323.351.313.183-.018.326-.168.333-.352-.018-.189-.178-.332-.371-.332zm-1.657-15.43c-.034.034-.063.074-.083.117-.064.17.025.362.197.424.003.001.006.002.011.005.171.059.356-.023.428-.186v-.021c.064-.17-.025-.362-.197-.424-.003-.001-.008-.003-.011-.005-.125-.046-.261-.009-.345.09zm1.301 31.097c-.168.078-.239.278-.16.445.003.003.003.008.006.009.078.163.274.232.437.154.165-.065.248-.249.184-.416-.003-.008-.006-.012-.008-.021-.081-.171-.283-.248-.459-.171zm-32.383-49.491c-.307-.09-.63.074-.738.378-.102.301.057.629.358.734.307.093.634-.073.738-.378.103-.302-.056-.63-.358-.734zm13.268 4.485c-.302-.104-.63.056-.735.356s.057.629.358.734c.302.104.63-.056.735-.356.103-.3-.058-.628-.358-.734zm13.268 4.467c-.307-.093-.634.073-.737.377-.092.304.081.625.384.717.302.092.626-.08.718-.383.091-.295-.071-.612-.365-.711zm-10.455 43.6c-.281.145-.4.485-.265.773.141.287.487.406.775.265.288-.14.406-.486.265-.773-.143-.282-.486-.4-.775-.265zm12.542-6.195c-.283.144-.403.486-.265.773.152.287.501.403.796.266.285-.154.388-.509.237-.791-.151-.272-.487-.381-.768-.248zm-12.223-18.985c-.323.023-.566.302-.544.623v.001c.023.311.295.544.605.521.317-.014.561-.283.546-.599-.014-.318-.283-.56-.601-.546-.001 0-.005 0-.005 0zm13.962-.932c-.314.014-.556.279-.543.592v.011c.013.322.283.574.607.562.322-.013.575-.282.563-.606-.013-.322-.283-.574-.607-.562-.008.001-.014.002-.02.003zm-17.008-7.599c-.322.013-.573.283-.562.604.015.311.275.558.586.561.324-.017.577-.281.582-.603-.021-.318-.286-.566-.606-.562zm13.943-.35c-.322.013-.573.283-.562.604.007.316.27.568.586.561s.569-.269.562-.585c-.009-.316-.267-.573-.586-.58zm-2.31-21.533c-.295-.109-.622.041-.734.332 0 .001-.002.002-.001.003-.119.296.023.631.317.752.302.11.636-.04.756-.337.105-.298-.044-.629-.338-.75zm13.03 5.019c-.294-.12-.63.024-.75.317-.12.294.025.628.319.748.003.001.008.003.015.005.3.106.634-.042.756-.337.111-.294-.041-.621-.333-.734-.005.003-.005.003-.007.001zm-25.564 43.271c-.29.137-.419.482-.286.773.131.286.468.416.755.286.289-.114.43-.442.315-.729-.003-.008-.005-.015-.011-.024-.122-.296-.46-.437-.756-.313-.006.002-.011.005-.017.007zm12.746-5.647c-.29.137-.419.482-.286.773.131.286.468.416.755.286.289-.114.43-.442.315-.729-.003-.008-.005-.015-.011-.024-.122-.296-.463-.436-.756-.313-.005.003-.011.006-.017.007zm-2.103-16.046c-.233.058-.376.293-.319.528.057.227.283.368.513.321.225-.045.373-.263.331-.488-.003-.014-.007-.03-.011-.043-.058-.227-.287-.368-.514-.318zm10.211-2.439c-.235.058-.378.298-.319.531.058.233.299.377.532.319.232-.053.377-.286.323-.516-.001-.006-.003-.009-.004-.015-.063-.232-.298-.373-.532-.319zm-5.417-19.326c-.235-.033-.456.131-.493.365-.022.236.135.448.367.493.235.037.457-.124.494-.36 0-.001 0-.001 0-.001.042-.228-.106-.448-.333-.491-.015-.003-.024-.005-.035-.006zm10.401 1.643c-.241-.033-.465.128-.513.366-.037.235.125.457.361.493 0 0 .001 0 .003.001.228.043.446-.103.491-.331 0 0 .001-.01.002-.017.047-.235-.103-.463-.338-.512 0 .001-.003.001-.006 0z" fill="#e3edfe"/><circle cx="255.724" cy="588.44" fill="#e3edfe" r="37.759"/><circle cx="290.301" cy="568.711" fill="#e3edfe" r="35.001"/><circle cx="273.33" cy="620.047" fill="#e3edfe" r="38.82"/><path d="m277.468 676.005c-.468 0-.849-.38-.849-.849v-59.397c0-7.954 6.471-14.424 14.425-14.424.468 0 .849.38.849.849s-.38.849-.849.849c-7.018 0-12.728 5.709-12.728 12.727v59.397c.001.468-.379.848-.848.848z" fill="#a1c3fc"/><path d="m270.148 655.246c-.468 0-.849-.38-.849-.849v-59.396c0-7.954 6.471-14.425 14.425-14.425.468 0 .849.38.849.849s-.38.849-.849.849c-7.018 0-12.728 5.71-12.728 12.728v59.396c.001.468-.379.848-.848.848z" fill="#a1c3fc"/><path d="m273.967 645.715c-2.577 0-4.667 2.089-4.667 4.667v85.276h9.334v-85.276c0-2.578-2.09-4.667-4.667-4.667z" fill="#a1c3fc"/><path d="m297.551 585.23c-.088.135-.048.317.088.404.135.087.317.048.405-.087s.048-.317-.087-.405c-.138-.085-.318-.047-.406.088zm6.05 3.83c-.085.143-.046.326.087.425.142.081.322.034.404-.106.09-.123.065-.295-.059-.386-.008-.007-.018-.012-.03-.018-.134-.089-.314-.05-.402.085zm-11.032 25.718c-.162.033-.266.193-.232.353.026.149.169.248.317.221.012 0 .025-.005.038-.01.157-.03.26-.177.232-.334-.034-.16-.193-.263-.355-.23zm18.15-37.731c-.129.09-.163.268-.073.399.091.129.268.162.4.074.132-.089.163-.268.073-.399-.078-.128-.247-.169-.375-.09-.011.006-.018.01-.025.016zm-14.663 22.931c-.163-.017-.313.091-.35.25-.028.165.085.321.251.35.165.028.323-.084.35-.25.016-.164-.093-.313-.251-.35zm7.058 1.233c-.16-.023-.307.09-.331.25-.038.151.054.305.206.344.008.001.016.004.025.005.165.023.317-.086.35-.25.017-.162-.091-.313-.25-.349zm-.733-54.703c-.263.156-.352.496-.195.761.002.005.008.01.01.017.156.259.495.344.754.188 0 0 .001-.002.003-.003.263-.156.352-.496.195-.761-.002-.005-.008-.01-.01-.017-.156-.259-.495-.344-.754-.188-.003 0-.003 0-.003 0zm7.051 11.588c-.266.162-.354.507-.193.776s.507.354.778.194c0 0 .006-.002.009-.005.259-.156.344-.494.188-.753 0-.001-.002-.001-.002-.001-.167-.269-.509-.359-.78-.211zm-47.468 22.786c-.302-.068-.604.118-.677.419-.08.289.085.586.371.668.011.003.02.006.029.007.302.068.604-.118.677-.42.076-.296-.103-.597-.4-.674zm26.392 6.459c-.298-.074-.596.104-.672.401 0 0-.003.013-.003.019-.08.288.085.586.371.668.011.003.02.006.029.007.306.063.609-.119.697-.418.066-.303-.12-.604-.422-.677zm13.188 3.22c-.302-.072-.607.117-.677.419-.072.303.117.605.42.676.297.077.599-.102.677-.398.08-.299-.097-.609-.398-.691-.009-.004-.016-.005-.022-.006zm-22.137-32.839c-.174.253-.109.599.146.774.254.175.6.109.775-.144.171-.249.111-.587-.134-.764-.256-.175-.606-.116-.787.134zm10.962 8.025c-.174.253-.109.599.146.774.254.175.6.109.775-.144.171-.249.111-.587-.134-.764-.255-.176-.604-.117-.787.134zm10.944 8.025c-.179.26-.111.614.148.793.249.172.592.119.777-.12.193-.249.146-.606-.104-.8-.249-.193-.608-.146-.801.103-.01.008-.015.015-.02.024zm-34.296 34.031c-.305.054-.513.341-.462.649.042.299.323.506.622.463 0 0 .003 0 .005-.001.296-.027.513-.288.488-.584-.002-.014-.003-.028-.005-.044-.058-.303-.34-.512-.648-.483zm26.85-4.103c-.294.038-.504.305-.466.6 0 .008.002.017.006.025.035.305.314.522.62.487.01-.001.019-.001.028-.003.308-.05.516-.339.467-.645-.05-.308-.341-.516-.646-.466-.004.002-.007.003-.009.002zm-6.307-56.49c-.182.206-.165.52.037.705.204.183.52.167.705-.036.186-.205.167-.519-.037-.705-.204-.183-.518-.167-.705.036zm9.052 8.061c-.182.206-.165.52.037.705.199.19.515.184.706-.014.19-.199.185-.515-.015-.705-.006-.008-.016-.014-.023-.022-.196-.185-.506-.174-.692.021-.003.004-.006.011-.013.015zm9.381 7.913c-.125-.003-.245.053-.327.151-.182.206-.165.52.037.705.21.19.53.176.723-.032l.003-.004c.111-.124.156-.295.116-.459v-.021c-.019-.092-.073-.173-.154-.224-.106-.106-.256-.149-.398-.116zm-34.854 31.967c-.281.027-.49.266-.48.546.014.267.24.471.508.459.008 0 .014-.002.022-.002.277-.01.491-.241.479-.516 0-.003-.001-.005-.001-.005-.024-.276-.255-.485-.528-.482zm24.21-1.36c-.277.01-.491.241-.482.517 0 0 .001.006.001.01.004.26.221.467.481.462.016 0 .032 0 .048-.004.277-.01.491-.241.482-.517-.001-.003-.001-.006-.001-.01-.028-.269-.261-.47-.529-.458zm12.083-.691c-.279.025-.484.269-.459.547.023.27.257.473.529.459.272-.025.481-.252.48-.526-.027-.28-.268-.49-.55-.48zm-26.461-22.599c-.263-.082-.545.06-.633.321-.09.258.044.54.302.63.263.087.549-.044.653-.299.086-.268-.054-.559-.322-.652zm11.452 4.004c-.246-.097-.527.025-.623.272-.003.008-.006.019-.01.027-.09.258.044.54.302.63.263.087.549-.044.653-.299.082-.26-.061-.542-.322-.63zm11.452 3.987c-.259-.089-.539.049-.629.307-.087.255.045.534.299.626.257.092.541-.038.637-.295.094-.258-.038-.541-.296-.636-.004 0-.006-.001-.011-.002zm-10.076 33.053c-.249.121-.358.42-.242.675.129.248.434.347.685.218.237-.123.339-.407.233-.651-.109-.248-.401-.364-.649-.257-.01.008-.02.011-.027.015zm8.312-32.569c-.16-.023-.307.09-.331.25-.023.159.091.308.25.331.16.023.307-.09.331-.25.025-.162-.089-.309-.25-.331zm7.089.953c-.165-.013-.309.106-.331.271-.023.16.091.308.25.331.152.028.299-.075.326-.229.001-.008.003-.014.003-.023.029-.162-.08-.317-.242-.35-.002.001-.004 0-.006 0zm1.097-13.613c-.071.143-.025.315.107.405.134.084.314.042.398-.094.003-.004.005-.009.008-.014.084-.131.048-.305-.083-.39-.009-.005-.016-.01-.023-.014-.145-.081-.326-.034-.407.107zm-3.713 26.918c-.158.039-.251.197-.211.354.04.158.198.251.356.211.15-.026.249-.168.222-.316 0-.011-.005-.025-.01-.038-.035-.154-.193-.25-.345-.214-.006 0-.008.002-.012.003zm4.33-46.39c-.121.13-.112.336.019.456.002.001.004.004.006.008.131.127.339.125.466-.004.005-.006.012-.014.018-.02.121-.13.112-.336-.019-.456-.002-.001-.004-.004-.006-.008-.143-.124-.356-.112-.484.024zm-11.418 32.167c-.173-.001-.314.14-.315.311-.001.013.001.026.003.04.011.183.168.323.351.313.183-.018.326-.168.333-.352-.015-.188-.18-.328-.372-.312.003-.001.003-.001 0 0zm8.155-.397c-.19.015-.329.179-.313.37v.001c.011.183.168.323.351.313.183-.018.326-.168.333-.352-.019-.189-.179-.332-.371-.332zm-1.658-15.43c-.034.034-.063.074-.083.118-.064.17.025.361.197.424.003.001.006.002.011.005.171.059.356-.022.428-.186v-.021c.064-.17-.025-.361-.197-.424-.003-.001-.008-.003-.011-.005-.125-.047-.261-.01-.345.089zm1.301 31.097c-.168.078-.239.278-.16.445.003.003.003.008.006.009.078.163.274.233.437.154.165-.065.248-.249.184-.416-.003-.008-.006-.012-.008-.021-.08-.171-.282-.248-.459-.171zm-32.383-49.491c-.307-.09-.63.074-.738.378-.102.301.057.629.358.734.307.093.634-.073.738-.378.103-.302-.056-.63-.358-.734zm13.268 4.485c-.302-.104-.63.056-.735.356s.057.629.358.734c.302.104.63-.056.735-.356.103-.299-.058-.628-.358-.734zm13.268 4.467c-.307-.093-.634.073-.737.377-.092.304.081.625.384.717.302.092.626-.08.718-.383.092-.295-.071-.612-.365-.711zm-10.455 43.6c-.281.145-.4.485-.265.773.141.287.487.406.775.265.288-.14.406-.486.265-.773-.143-.282-.486-.401-.775-.265zm12.542-6.195c-.283.144-.403.486-.265.773.152.287.501.403.796.266.285-.154.388-.509.237-.791-.151-.272-.487-.381-.768-.248zm-12.222-18.985c-.323.023-.566.302-.544.623v.001c.023.311.295.544.605.521.317-.014.561-.283.546-.599-.014-.318-.283-.56-.601-.546-.001 0-.005 0-.005 0zm13.962-.932c-.314.014-.556.279-.543.592v.011c.013.322.283.574.607.562.322-.013.575-.282.563-.606-.013-.322-.283-.574-.607-.562-.008.001-.015.002-.02.003zm-17.009-7.6c-.322.013-.573.283-.562.604.015.311.275.558.586.561.324-.017.577-.281.582-.603-.021-.318-.286-.564-.606-.562zm13.944-.349c-.322.013-.573.283-.562.604.007.316.27.568.586.561s.569-.269.562-.585c-.009-.316-.268-.573-.586-.58zm-2.311-21.533c-.295-.109-.622.041-.734.332 0 .001-.002.002-.001.003-.119.296.023.631.317.752.302.11.636-.04.756-.337.105-.298-.044-.629-.338-.75zm13.03 5.019c-.294-.12-.63.024-.75.317-.12.294.025.628.319.748.003.001.008.003.015.005.3.106.634-.042.756-.337.111-.294-.041-.621-.333-.734-.005.003-.005.003-.007.001zm-25.564 43.272c-.29.137-.418.482-.286.773.131.286.468.416.755.286.289-.114.43-.442.315-.729-.003-.008-.005-.015-.011-.024-.122-.296-.46-.437-.756-.313-.006.001-.011.004-.017.007zm12.746-5.648c-.29.137-.418.482-.286.773.131.286.468.416.755.286.289-.114.43-.442.315-.729-.003-.008-.005-.015-.011-.024-.122-.296-.463-.436-.756-.313-.005.003-.011.006-.017.007zm-2.103-16.046c-.233.058-.376.293-.319.528.057.227.283.368.513.321.225-.044.373-.263.331-.488-.003-.014-.007-.03-.011-.043-.058-.227-.287-.368-.514-.318zm10.211-2.439c-.235.058-.378.298-.319.531.058.233.299.377.532.319.232-.053.377-.286.323-.516-.001-.005-.003-.009-.004-.015-.063-.232-.298-.373-.532-.319zm-5.417-19.326c-.235-.033-.456.131-.493.365-.022.236.135.448.367.493.235.037.457-.124.494-.36 0-.001 0-.001 0-.001.042-.228-.106-.448-.333-.491-.014-.004-.024-.005-.035-.006zm10.402 1.643c-.241-.033-.465.128-.513.366-.037.235.125.457.361.493 0 0 .001 0 .003.001.228.043.446-.103.491-.331 0 0 .001-.01.002-.017.047-.235-.103-.463-.338-.512-.001.001-.004.001-.006 0z" fill="#fff"/><path d="m1063.882 698.407c-.084-.129-.256-.165-.387-.084-.129.084-.168.258-.084.387s.258.167.387.083c.13-.083.168-.257.084-.386zm-5.787 3.664c-.083-.129-.256-.167-.386-.082-.011.006-.02.01-.028.017-.119.087-.142.252-.056.37.079.133.251.179.387.101.128-.094.165-.269.083-.406zm10.552 24.596c-.155-.033-.307.066-.34.221-.026.15.073.291.222.32.012.005.025.009.036.009.141.026.278-.069.303-.212.033-.153-.066-.306-.221-.338zm-17.381-36.101c-.123-.075-.285-.036-.359.086-.085.125-.056.297.07.381.126.085.295.053.382-.071.085-.125.053-.295-.07-.381-.007-.005-.014-.009-.023-.015zm13.806 22.28c.026.159.177.266.335.239.159-.028.267-.176.24-.335-.036-.152-.178-.255-.335-.239-.152.036-.255.179-.24.335zm-6.749 1.179c.031.157.177.261.335.239.009-.002.016-.004.024-.005.145-.037.233-.185.197-.329-.022-.153-.163-.262-.316-.239-.153.035-.257.179-.24.334zm.939-52.653s0 0-.002 0c-.248-.149-.573-.068-.721.18-.002.006-.008.011-.01.016-.15.253-.065.579.186.727.002 0 .003.002.003.002.248.149.573.068.721-.18.002-.006.008-.011.01-.016.15-.253.065-.579-.186-.728zm-6.743 11.085c-.26-.141-.586-.055-.745.202 0 0-.002 0-.002.001-.149.247-.069.571.179.72.003.003.009.005.009.005.258.153.59.072.744-.185.154-.259.07-.589-.185-.743zm45.397 21.792c-.284.073-.455.362-.383.644.07.289.358.467.648.402.009-.001.017-.004.028-.007.274-.079.432-.363.355-.639-.07-.287-.359-.465-.648-.4zm-25.24 6.178c-.288.069-.466.357-.405.647.084.286.375.46.667.4.009-.001.017-.004.028-.007.273-.079.432-.363.355-.639 0-.006-.003-.018-.003-.018-.073-.284-.357-.454-.642-.383zm-12.613 3.079c-.006.001-.013.002-.02.005-.288.078-.457.375-.381.661.074.284.363.454.647.381.289-.068.47-.357.401-.647-.066-.288-.358-.469-.647-.4zm21.172-31.406c-.174-.24-.508-.297-.753-.129-.234.169-.291.493-.128.731.167.243.499.305.741.138.244-.167.306-.498.14-.74zm-10.484 7.675c-.175-.24-.509-.297-.753-.129-.234.169-.291.493-.128.731.167.243.499.305.741.138.245-.167.307-.498.14-.74zm-10.486 7.651c-.185-.238-.528-.283-.766-.098-.239.185-.284.527-.099.765.177.229.504.28.743.115.248-.171.313-.51.142-.758-.006-.009-.011-.016-.02-.024zm32.2 33.032c-.002.016-.003.029-.005.042-.024.282.184.533.467.558.002.001.005.001.005.001.286.041.554-.157.595-.443.048-.295-.151-.569-.442-.62-.295-.028-.565.172-.62.462zm-25.067-4.387c-.292-.047-.57.152-.618.446-.047.293.151.569.446.617.009.002.017.002.026.003.293.033.56-.174.593-.466.004-.008.005-.017.005-.024.036-.282-.164-.538-.446-.574-.001-0-.003-.001-.006-.002zm6.039-54.025c-.178-.194-.479-.209-.675-.034-.195.178-.213.478-.035.674.178.194.48.21.675.034.192-.177.209-.477.035-.674zm-8.658 7.71c-.006-.004-.009-.011-.012-.015-.177-.187-.474-.197-.661-.02-.007.007-.016.013-.022.021-.191.182-.197.484-.015.674s.484.196.675.014c.193-.177.209-.477.035-.674zm-8.971 7.567c-.135-.032-.28.01-.381.111-.078.049-.13.126-.148.215v.02c-.038.156.005.32.111.439l.003.004c.184.199.49.212.691.03.193-.177.209-.477.035-.674-.076-.094-.191-.147-.311-.145zm32.829 31.034s-.001.002-.001.005c-.011.263.193.484.458.493.008 0 .014.002.022.002.256.011.473-.184.486-.439.009-.268-.19-.497-.459-.523-.263-.003-.483.198-.506.462zm-22.649-1.762c-.257-.011-.479.181-.506.438 0 .004 0 .007-.001.01-.009.263.196.485.46.494.016.003.031.004.046.004.248.005.456-.193.46-.441 0-.004.001-.01.001-.01.01-.264-.195-.486-.46-.495zm-11.556-.661c-.269-.01-.5.191-.526.459-.001.262.199.479.459.503.26.014.484-.181.506-.439.024-.265-.173-.499-.439-.523zm24.999-20.99c.099.244.373.369.625.286.247-.086.375-.355.289-.603-.084-.249-.353-.385-.605-.307-.257.09-.391.369-.309.624zm-10.953 3.808c.099.244.373.369.625.286.247-.086.375-.355.289-.603-.004-.007-.007-.018-.01-.026-.092-.236-.36-.353-.596-.26-.249.086-.386.355-.308.603zm-10.655 3.212c-.247.091-.372.361-.283.608.091.246.364.371.609.282.244-.088.369-.355.286-.599-.086-.246-.353-.379-.601-.293-.005.002-.007.003-.011.002zm9.621 31.596c-.237-.103-.517.008-.621.245-.101.233-.004.504.223.622.239.124.531.029.655-.208.111-.243.007-.529-.231-.645-.006-.003-.016-.007-.026-.014zm-7.924-31.134c-.153.021-.262.162-.239.316.022.153.164.261.316.239s.261-.164.239-.316c-.022-.153-.163-.262-.316-.239zm-6.784.913c-.155.031-.259.179-.232.334 0 .009.002.014.003.021.026.147.166.245.312.219.153-.022.261-.164.239-.316-.021-.157-.158-.271-.317-.259-.002 0-.004.001-.005.001zm-1.044-13.021c-.078-.134-.251-.179-.39-.103-.007.004-.014.009-.022.013-.125.082-.16.248-.079.373.004.005.005.01.008.014.08.13.252.17.381.09.126-.086.17-.251.102-.387zm3.551 25.744c-.003-.001-.005-.002-.011-.002-.146-.034-.297.058-.33.205-.004.012-.009.026-.009.036-.026.141.069.277.212.302.151.038.302-.051.341-.202.037-.15-.052-.301-.203-.339zm-4.141-44.366c-.123-.13-.327-.141-.463-.023-.002.003-.004.006-.006.007-.125.116-.133.312-.018.437.006.006.013.013.017.019.122.123.321.125.445.004.002-.003.004-.006.006-.007.126-.116.135-.313.019-.437zm10.92 30.764c-.003-.001-.003-.001 0 0-.183-.015-.342.119-.356.299.006.177.143.319.318.337.175.009.325-.125.336-.299.002-.013.004-.026.003-.039-.001-.165-.135-.3-.301-.298zm-7.799-.38c-.184 0-.337.137-.355.318.006.177.143.319.318.337.175.009.325-.125.336-.299v-.001c.016-.184-.118-.341-.299-.355zm1.585-14.757c-.08-.095-.211-.13-.329-.085-.003.002-.007.004-.01.005-.165.06-.25.243-.188.406v.02c.069.156.245.234.409.178.005-.003.007-.004.01-.005.165-.06.25-.243.188-.406-.02-.042-.047-.08-.08-.113zm-1.245 29.741c-.168-.073-.361 0-.439.164-.002.009-.005.012-.008.02-.061.159.018.335.176.398.157.075.343.008.418-.148.002 0 .003-.006.005-.009.077-.16.009-.351-.152-.425zm30.972-47.332c-.289.099-.441.413-.342.702.099.292.412.451.706.362.288-.1.439-.413.342-.702-.104-.291-.413-.448-.706-.362zm-12.69 4.289c-.287.101-.441.415-.342.702.101.287.414.44.703.341.288-.1.443-.414.342-.702-.101-.287-.414-.44-.703-.341zm-13.038 4.951c.088.29.398.454.687.366.29-.087.455-.395.368-.685-.099-.291-.412-.45-.705-.36-.283.095-.438.398-.35.679zm10.347 41.02c-.276-.13-.604-.017-.741.254-.135.275-.022.606.253.74.276.135.606.021.741-.254.13-.277.016-.602-.253-.74zm-12.729-5.688c-.145.269-.046.609.226.756.282.131.616.02.761-.254.132-.275.017-.602-.253-.74-.268-.127-.589-.022-.734.238zm12.423-18.396s-.004 0-.005 0c-.304-.014-.562.218-.575.522-.014.302.219.56.522.573.297.023.557-.201.579-.498v-.001c.021-.307-.211-.573-.52-.596zm-13.371-.893c-.31-.012-.568.23-.581.538-.012.31.23.568.538.58.31.012.568-.23.581-.538 0-.003 0-.007 0-.011.013-.299-.22-.553-.519-.566-.005-.001-.011-.001-.019-.003zm16.286-7.265c-.306-.003-.56.233-.579.537.005.308.247.56.557.577.297-.003.546-.239.56-.536.01-.307-.23-.565-.538-.578zm-13.336-.334c-.305.006-.552.252-.56.555-.006.302.235.553.538.559.302.007.554-.234.56-.536.011-.307-.229-.565-.538-.578zm2.21-20.594c-.281.116-.424.433-.323.717.115.284.435.428.723.322.281-.116.417-.436.303-.719.001-.001-.001-.002-.001-.003-.107-.278-.42-.421-.702-.317zm-12.461 4.8c-.002.002-.002.002-.006 0-.28.108-.425.42-.319.702.117.282.436.424.723.322.007-.002.011-.004.014-.004.281-.115.42-.435.305-.715-.115-.281-.436-.42-.717-.305zm24.432 41.378c-.284-.118-.607.016-.723.299-.006.008-.008.015-.011.023-.11.275.025.588.302.698.275.125.597.001.722-.273.127-.278.004-.609-.274-.74-.005-.003-.01-.006-.016-.007zm-12.189-5.401c-.281-.118-.607.016-.724.299-.006.008-.008.015-.01.023-.11.275.025.588.301.698.275.125.597.001.722-.273.127-.278.004-.609-.273-.74-.006-.002-.012-.005-.016-.007zm1.534-15.035c-.004.012-.008.028-.01.041-.04.215.102.424.317.467.219.045.435-.09.49-.307.055-.225-.082-.45-.305-.505-.217-.048-.435.086-.492.304zm-9.273-2.638c-.224-.052-.449.083-.509.305-.001.006-.002.009-.004.015-.052.22.087.442.309.493.223.056.453-.082.509-.305.057-.223-.079-.452-.305-.508zm5.148-18.478c-.218.041-.359.252-.319.47v.001c.035.226.247.38.472.344.222-.043.372-.245.351-.471-.035-.224-.246-.38-.471-.349-.01.001-.02.003-.033.005zm-9.915 1.567c-.002 0-.006 0-.006 0-.225.046-.368.264-.323.489.001.006.002.016.002.016.043.218.252.358.47.316.002-.001.003-.001.003-.001.226-.034.381-.246.346-.471-.047-.227-.262-.381-.492-.349z" fill="#e3edfe"/><circle cx="1056.638" cy="620.399" fill="#e3edfe" r="36.112"/><circle cx="1023.569" cy="601.531" fill="#e3edfe" r="33.475"/><circle cx="1039.799" cy="650.628" fill="#e3edfe" r="37.127"/><path d="m1035.03 703.333v-56.806c0-6.712-5.461-12.172-12.173-12.172-.448 0-.812-.364-.812-.812s.364-.811.812-.811c7.607 0 13.796 6.189 13.796 13.795v56.806c0 .448-.364.812-.812.812s-.811-.364-.811-.812z" fill="#a1c3fc"/><path d="m1042.03 683.48v-56.806c0-6.712-5.461-12.173-12.173-12.173-.448 0-.812-.364-.812-.811 0-.448.364-.812.812-.812 7.607 0 13.796 6.189 13.796 13.796v56.806c0 .448-.364.812-.812.812-.447-.001-.811-.365-.811-.812z" fill="#a1c3fc"/><path d="m1034.727 679.639v56.31h8.927v-56.31c0-2.465-1.998-4.463-4.463-4.463-2.466-0-4.464 1.998-4.464 4.463z" fill="#a1c3fc"/><path d="m1016.634 617.329c-.084-.129-.256-.165-.388-.084-.129.084-.168.258-.084.387s.258.167.387.083c.131-.083.17-.257.085-.386zm-5.786 3.664c-.084-.129-.256-.167-.386-.082-.011.006-.02.011-.028.017-.118.087-.142.252-.056.37.079.133.251.179.387.101.127-.094.165-.27.083-.406zm10.551 24.596c-.155-.032-.307.066-.34.221-.026.15.073.291.222.32.012.005.025.009.036.009.141.026.278-.069.303-.212.034-.154-.065-.306-.221-.338zm-17.381-36.101c-.123-.075-.285-.036-.359.086-.085.125-.056.297.07.381.126.085.295.053.382-.071.085-.125.053-.295-.07-.381-.007-.005-.014-.01-.023-.015zm13.806 22.281c.026.159.177.266.335.239.159-.028.267-.177.24-.335-.036-.152-.179-.255-.335-.239-.151.035-.255.178-.24.335zm-6.749 1.178c.031.157.177.261.335.239.008-.002.016-.004.023-.005.145-.037.233-.185.197-.329-.022-.153-.163-.262-.316-.239-.151.034-.255.179-.239.334zm.94-52.654s0 0-.002 0c-.248-.149-.573-.068-.721.18-.002.006-.008.011-.01.016-.15.253-.065.579.186.727.002 0 .003.002.003.002.248.149.573.068.721-.18.002-.006.008-.011.01-.016.15-.253.065-.579-.186-.728zm-6.743 11.086c-.26-.141-.586-.055-.745.202 0 0-.002 0-.002.001-.149.247-.069.571.179.72.003.003.008.005.008.005.258.153.59.072.744-.185.155-.259.071-.588-.184-.743zm45.397 21.792c-.284.073-.455.362-.384.644.07.289.358.467.648.402.009-.001.017-.004.028-.007.273-.079.432-.363.355-.639-.07-.287-.358-.465-.647-.4zm-25.241 6.177c-.288.069-.466.357-.405.647.084.286.375.46.667.4.009-.001.017-.004.028-.007.273-.079.432-.363.355-.639 0-.006-.003-.018-.003-.018-.072-.284-.357-.454-.642-.383zm-12.612 3.08c-.006.002-.013.002-.02.005-.288.078-.457.375-.381.661.074.284.363.454.647.381.289-.068.47-.357.401-.647-.067-.288-.358-.469-.647-.4zm21.171-31.406c-.173-.239-.508-.296-.753-.129-.234.169-.291.493-.128.731.167.243.499.305.741.138.245-.167.307-.498.14-.74zm-10.483 7.674c-.175-.24-.509-.297-.753-.129-.234.169-.291.493-.128.731.167.243.499.305.741.138.244-.166.306-.497.14-.74zm-10.487 7.651c-.185-.238-.528-.283-.766-.098-.239.185-.284.527-.099.765.177.229.504.28.743.115.248-.171.313-.51.142-.758-.005-.008-.01-.015-.02-.024zm32.2 33.032c-.002.016-.003.029-.005.042-.024.282.184.533.467.558.002.001.005.001.005.001.286.041.554-.157.595-.443.048-.295-.151-.569-.442-.62-.294-.027-.564.173-.62.462zm-25.067-4.386c-.292-.047-.57.152-.618.446-.047.293.151.569.446.617.009.002.017.002.026.003.293.033.56-.174.593-.466.004-.008.005-.017.005-.024.036-.282-.164-.538-.446-.574 0-.001-.003-.001-.006-.002zm6.039-54.025c-.178-.194-.478-.209-.674-.034-.195.178-.213.478-.035.674.177.194.479.21.674.035.193-.178.209-.478.035-.675zm-8.657 7.709c-.006-.004-.009-.011-.012-.015-.177-.187-.474-.197-.661-.02-.007.007-.016.013-.022.021-.191.182-.197.484-.015.674.182.189.484.196.675.014.193-.177.209-.476.035-.674zm-8.971 7.568c-.135-.032-.28.01-.381.111-.077.049-.13.126-.148.215v.02c-.038.156.005.32.111.439l.003.004c.184.199.49.212.691.03.193-.177.209-.477.035-.674-.077-.094-.191-.147-.311-.145zm32.828 31.034s-.001.002-.001.005c-.011.263.193.484.458.493.008 0 .014.002.021.002.256.011.473-.184.486-.439.009-.268-.19-.497-.459-.523-.261-.003-.482.198-.505.462zm-22.648-1.762c-.257-.011-.479.181-.506.438 0 .004 0 .007-.001.01-.009.263.196.485.461.494.015.003.031.004.046.004.248.005.456-.193.46-.441 0-.004.001-.01.001-.01.008-.264-.197-.486-.461-.495zm-11.557-.661c-.269-.01-.5.191-.526.459-.001.262.199.479.459.503.26.014.484-.181.506-.439.025-.266-.172-.499-.439-.523zm25-20.99c.099.244.373.369.624.286.247-.086.375-.355.289-.603-.084-.249-.353-.385-.605-.307-.257.09-.39.368-.308.624zm-10.953 3.808c.099.244.373.369.624.286.247-.086.375-.355.289-.603-.004-.007-.007-.018-.01-.026-.092-.236-.36-.353-.596-.26-.249.086-.386.355-.307.603zm-10.656 3.212c-.247.091-.372.361-.283.608.091.246.364.371.609.282.243-.088.369-.355.286-.599-.086-.246-.353-.379-.601-.293-.004.002-.006.003-.011.002zm9.622 31.596c-.237-.103-.516.008-.621.245-.101.233-.004.504.223.622.239.124.531.029.655-.208.111-.243.007-.529-.231-.645-.007-.003-.017-.007-.026-.014zm-7.924-31.134c-.153.021-.263.162-.239.316.022.153.164.261.316.239.153-.022.261-.164.239-.316-.022-.153-.163-.261-.316-.239zm-6.785.913c-.155.031-.259.179-.232.334 0 .008.002.014.003.021.026.147.166.245.312.219.153-.022.261-.164.239-.316-.021-.157-.158-.271-.316-.259-.003 0-.004.001-.006.001zm-1.043-13.021c-.078-.135-.251-.18-.39-.103-.007.004-.014.008-.022.013-.125.082-.16.248-.079.373.004.005.005.01.008.014.08.13.252.17.381.09.126-.086.17-.251.102-.387zm3.55 25.744c-.004 0-.006-.002-.011-.002-.146-.034-.297.058-.33.205-.004.012-.009.026-.009.036-.026.141.069.277.212.302.151.038.302-.051.341-.202.037-.15-.051-.301-.203-.339zm-4.14-44.366c-.123-.13-.327-.141-.463-.022-.002.003-.004.006-.006.007-.125.115-.133.312-.018.436.006.006.013.013.017.019.122.123.321.125.445.004.002-.003.004-.006.006-.007.126-.116.134-.313.019-.437zm10.92 30.764c-.004-.001-.004-.001 0 0-.183-.015-.342.119-.356.299.006.177.143.319.318.337.174.009.325-.125.336-.299.002-.013.004-.026.003-.039-.001-.165-.136-.299-.301-.298zm-7.8-.38c-.183 0-.337.137-.355.318.007.177.143.319.318.337.174.009.325-.125.336-.299v-.001c.016-.185-.117-.341-.299-.355zm1.586-14.757c-.081-.095-.211-.13-.33-.085-.003.002-.007.004-.01.005-.165.06-.25.243-.188.406v.02c.069.156.245.234.409.178.005-.003.007-.004.01-.005.165-.06.25-.243.188-.406-.019-.042-.046-.08-.079-.113zm-1.245 29.74c-.168-.073-.362 0-.439.164-.002.009-.005.012-.008.02-.061.159.018.335.176.398.157.075.343.008.418-.148.002 0 .003-.006.005-.009.077-.159.008-.35-.152-.425zm30.971-47.331c-.289.099-.441.413-.342.702.099.292.412.451.706.362.288-.1.439-.414.342-.702-.103-.291-.412-.448-.706-.362zm-12.689 4.289c-.287.101-.441.416-.342.702.101.287.414.44.703.341.288-.1.443-.414.342-.702-.101-.287-.415-.44-.703-.341zm-13.039 4.951c.089.29.398.454.687.366.29-.087.455-.395.368-.685-.099-.291-.412-.45-.705-.36-.282.095-.437.398-.35.679zm10.348 41.019c-.276-.13-.605-.017-.741.254-.135.275-.022.606.253.74.275.135.606.021.741-.254.13-.276.016-.601-.253-.74zm-12.729-5.688c-.145.269-.046.609.226.756.282.131.616.02.761-.254.132-.275.017-.602-.253-.74-.268-.126-.59-.022-.734.238zm12.422-18.394s-.004 0-.005 0c-.304-.014-.562.218-.575.522-.014.302.219.56.522.573.297.023.557-.201.579-.498v-.001c.021-.307-.211-.573-.52-.596zm-13.37-.894c-.31-.012-.568.23-.581.538-.012.31.23.568.538.58.31.012.568-.23.581-.538 0-.003 0-.007 0-.011.013-.299-.22-.553-.519-.566-.005-.001-.012-.002-.019-.003zm16.286-7.265c-.306-.003-.559.233-.579.537.005.308.247.56.557.577.297-.003.546-.239.56-.536.01-.308-.23-.566-.538-.578zm-13.336-.334c-.304.006-.552.252-.56.555-.007.302.235.553.538.559.302.007.554-.234.56-.536.01-.308-.23-.566-.538-.578zm2.21-20.594c-.281.116-.424.433-.323.717.115.284.435.428.723.322.281-.116.417-.436.303-.719.001-.001-.001-.002-.001-.003-.108-.278-.42-.422-.702-.317zm-12.462 4.8c-.002.002-.002.002-.006 0-.28.108-.425.42-.319.702.117.282.436.424.723.322.007-.002.011-.004.014-.004.281-.115.42-.435.305-.715-.114-.282-.435-.42-.717-.305zm24.433 41.378c-.284-.118-.607.016-.724.299-.006.008-.008.015-.01.023-.11.275.025.588.301.697.275.125.597.001.722-.273.127-.278.004-.609-.273-.74-.006-.003-.01-.005-.016-.006zm-12.19-5.401c-.281-.118-.607.016-.723.299-.006.008-.008.015-.011.023-.11.275.025.588.301.697.275.125.597.001.722-.273.127-.278.004-.609-.273-.74-.006-.001-.011-.004-.016-.006zm1.535-15.035c-.004.012-.008.028-.01.041-.04.215.102.424.317.467.219.045.435-.09.49-.307.055-.225-.082-.45-.305-.505-.217-.049-.436.086-.492.304zm-9.273-2.637c-.224-.052-.449.083-.509.305-.001.006-.002.009-.004.015-.052.22.087.442.309.493.223.056.453-.082.509-.305.056-.224-.08-.453-.305-.508zm5.148-18.479c-.217.041-.359.252-.319.47v.001c.035.226.247.38.472.344.221-.043.372-.245.351-.471-.035-.224-.246-.38-.471-.349-.011.001-.02.003-.033.005zm-9.915 1.567c-.002.001-.005.001-.006 0-.225.046-.368.264-.323.489.001.006.002.016.002.016.043.218.252.358.47.316.002-.001.003-.001.003-.001.226-.034.381-.246.346-.471-.048-.227-.262-.381-.492-.349z" fill="#fff"/><path d="m844.656 735.949v-81.661c0-2.468-2.001-4.469-4.469-4.469-2.468 0-4.469 2.001-4.469 4.469v81.661z" fill="#1d72d8"/><path d="m861.105 692.437c0 .593-.004 1.182-.008 1.767v.004c-.008.605-.016 1.211-.028 1.808-.012.573-.024 1.142-.041 1.706l-.098 2.519c-.049 1.093-.106 2.169-.179 3.234-.148 2.549-.772 5.047-1.84 7.366-.257.547-.542 1.079-.853 1.597v.004c-.252.418-.516.821-.796 1.211v.004c-.248.341-.504.67-.768.991-.163.195-.329.386-.5.569-.24.268-.488.524-.743.768-.427.42-.876.818-1.345 1.19-.24.187-.483.374-.731.548-.49.354-.998.681-1.524.979-.244.146-.492.28-.739.41-.41.211-.829.41-1.255.597-.256.11-.512.215-.772.313-1.366.525-2.784.906-4.229 1.138-1.315.214-2.646.313-3.977.297-.276 0-.557-.008-.837-.02-.658-.032-1.316-.089-1.979-.175-.215-.024-.435-.057-.65-.093-.496-.073-.995-.167-1.495-.272-.215-.045-.427-.093-.642-.146-.293-.069-.585-.146-.878-.227-.674-.187-1.347-.405-2.019-.654l-.947-.37c-.288-.118-.577-.244-.861-.374-.341-.154-.683-.317-1.02-.488-.471-.236-.939-.488-1.398-.76-.39-.223-.772-.459-1.154-.707-4.896-3.161-9.218-8.121-12.034-15.028-.283-.704-.524-1.425-.723-2.157-.114-.41-.223-.841-.321-1.288-.089-.378-.171-.768-.248-1.17-.069-.366-.134-.739-.199-1.125-.077-.479-.15-.975-.215-1.483-.045-.341-.089-.687-.126-1.044-.089-.784-.167-1.599-.232-2.446-.024-.317-.049-.634-.069-.959-.054-.784-.096-1.59-.126-2.417-.016-.301-.024-.601-.033-.906-.032-.971-.053-1.974-.061-3.002v-.004c-.004-.305-.008-.609-.008-.922-.016-8.089.622-17.791 1.698-28.276v-.004c.057-.581.118-1.162.183-1.747.093-.898.191-1.8.293-2.706.057-.516.114-1.036.175-1.556.065-.577.134-1.154.203-1.735v-.004c.053-.471.11-.943.167-1.418v-.004c.15-1.235.301-2.478.459-3.725v-.004c.053-.422.11-.853.167-1.276v-.004c.138-1.081.28-2.165.427-3.254v-.004c.053-.414.11-.825.167-1.239v-.004c.175-1.312.356-2.629.544-3.949-.001-.007.001-.014.004-.02v-.004c.053-.398.11-.792.171-1.186.012-.11.028-.219.045-.325.585-4.103 1.207-8.227 1.857-12.334.089-.544.175-1.093.26-1.637.138-.853.276-1.71.414-2.56.081-.508.167-1.012.248-1.515v-.004c.126-.748.249-1.492.37-2.234v-.004c.089-.512.175-1.016.256-1.523.097-.565.195-1.129.288-1.69.081-.467.162-.934.24-1.402.065-.386.134-.768.199-1.146.069-.398.138-.796.207-1.19.122-.699.244-1.393.366-2.084.061-.362.126-.723.191-1.085.158-.902.321-1.796.479-2.685.069-.374.138-.748.203-1.117.057-.321.118-.638.175-.951.098-.54.195-1.073.293-1.609v-.004c.19-1.02.378-2.031.565-3.035.146-.768.293-1.536.435-2.295 0-.004.004-.004 0-.008.439-2.312.876-4.573 1.312-6.785v-.004c.146-.735.288-1.458.435-2.178v-.004c.199-.999.397-1.987.593-2.962v-.004c.114-.548.223-1.085.333-1.625.13-.642.26-1.276.39-1.901v-.004c.11-.512.215-1.016.317-1.519v-.004c.154-.727.305-1.438.455-2.145.106-.496.207-.983.313-1.467.158-.748.317-1.487.475-2.21v-.004c.097-.443.195-.882.288-1.316 3.465-15.8 6.216-25.571 6.655-23.247.122.638.252 1.312.398 2.031.097.471.199.959.305 1.463.138.67.287 1.368.447 2.092.11.512.223 1.036.341 1.576.171.764.347 1.553.528 2.369v.004c.122.528.244 1.064.37 1.617v.008c.146.638.297 1.292.447 1.958v.004c.138.593.276 1.194.418 1.808.215.938.439 1.897.666 2.885.158.674.317 1.358.475 2.052v.012c.687 2.941 1.418 6.074 2.178 9.369v.008c.154.65.305 1.304.455 1.962.203.873.406 1.756.609 2.649.118.508.236 1.02.353 1.54v.004c.097.427.195.853.292 1.284v.004c.077.333.154.662.228.999v.004c.138.597.276 1.194.41 1.8.081.358.162.715.244 1.077.13.581.264 1.166.394 1.755v.004c.085.374.171.748.252 1.125.187.833.374 1.672.561 2.519.089.394.179.788.264 1.186.134.605.268 1.211.402 1.82.098.447.195.898.293 1.349.284 1.284.565 2.568.845 3.876-.004.004-.004.004 0 .008.634 2.958 1.268 5.968 1.901 9.031-.001.004.001.009.004.012.358 1.751.716 3.52 1.077 5.306v.004c.272 1.357.544 2.73.812 4.099v.004c.012.065.024.126.037.187.061.313.122.618.183.93v.004c.236 1.227.471 2.454.707 3.689.069.362.138.727.203 1.089.352 1.877.699 3.763 1.04 5.659.061.333.122.666.179.999.236 1.304.463 2.612.691 3.921l.171.987c.158.926.314 1.854.467 2.783.057.337.114.674.167 1.012.219 1.32.433 2.643.642 3.969.049.297.093.593.142.886v.004c.045.297.089.585.138.882s.089.589.134.886c.089.581.179 1.158.264 1.739.045.288.085.577.13.861.061.418.122.833.183 1.251.041.28.081.565.122.845.085.581.167 1.162.252 1.743l.061.451c.02.134.037.272.057.406l.171 1.231v.004c.922 6.773 1.694 13.484 2.255 20.029v.004c.049.561.093 1.113.138 1.67.073.865.138 1.731.199 2.588v.004c.037.492.069.979.102 1.471.033.475.065.951.093 1.426l.069 1.097.012.256c.02.297.037.593.053.89.061 1.121.114 2.239.158 3.344.016.374.032.743.045 1.113v.004c.032.845.057 1.69.077 2.527.012.427.024.853.032 1.28.02.951.033 1.895.037 2.832v.004z" fill="url(#aa)"/><g fill="#eee"><path d="m860.748 679.81c-5.18 5.858-14.581 19.672-11.091 39.9-.256.11-.512.215-.772.313-2.82-16.04 2.336-28.134 7.26-35.541.154-.236.309-.467.467-.695.293-.427.581-.833.869-1.223.167-.227.333-.451.496-.666.394-.512.78-.995 1.15-1.442-.004 0 0-.004 0-.004.183-.219.358-.431.528-.63.325-.378.634-.723.922-1.044.037-.041.073-.077.106-.114l.012.256c.02.296.036.593.053.89z"/><path d="m860.951 684.271c-3.925 4.099-13.273 16.141-9.3 34.432-.244.146-.492.28-.739.41-4.396-19.716 6.387-32.384 9.994-35.959.016.374.032.744.045 1.113z"/><path d="m853.906 717.174c-.24.187-.483.374-.731.549-2.576-14.963 3.575-25.591 7.853-30.925.012.427.024.853.032 1.28-4.091 5.378-9.38 15.34-7.154 29.096z"/><path d="m861.097 690.909v.004c-4.809 7.421-6.876 16.288-5.846 25.071.256-.244.504-.5.744-.768-.793-7.945 1-15.935 5.111-22.78z"/><path d="m861.068 696.016c-2.707 5.474-4.015 11.533-3.807 17.636v.004c-.248.341-.504.67-.768.991-.427-7.111 1.169-14.198 4.603-20.439-.007.605-.015 1.211-.028 1.808z"/><path d="m861.028 697.722c-1.97 4.655-2.98 9.66-2.97 14.715.312-.517.596-1.05.853-1.597.145-3.614.825-7.186 2.019-10.6z"/><path d="m856.541 684.946c-12.28-14.083-15.398-27.87-9.268-40.979l.736.345c-5.981 12.791-2.904 26.282 9.145 40.099z"/><path d="m857.878 683.026c-12.017-13.781-14.824-26.239-8.579-38.082l.719.379c-6.07 11.512-3.299 23.669 8.472 37.169z"/><path d="m859.207 680.544c-12.25-14.048-14.226-22.338-8.133-34.117l.722.373c-5.972 11.547-4.099 19.306 8.024 33.209z"/><path d="m860.695 678.92c-.037-.049-.077-.093-.118-.142-4.607-5.456-7.764-9.917-9.21-14.325-1.658-5.042-1.174-10.043 1.641-16.665.053-.13.106-.256.163-.386l.743.325c-.049.118-.102.232-.15.349-5.135 12.095-2.214 18.668 6.85 29.491l.069 1.097z"/><path d="m860.418 674.67c.037.492.069.979.102 1.471-7.8-9.99-9.401-16.523-5.058-27.521.053-.142.11-.284.167-.427l.752.305c-.045.11-.089.219-.13.329-4.095 10.327-2.787 16.625 4.168 25.839-.001 0-.005 0-.001.004z"/><path d="m860.219 672.078c-5.578-8.43-6.106-14.731-2.767-22.979.045-.122.093-.244.146-.366.02.134.037.272.057.406l.171 1.231v.004c-2.694 7.171-2.259 12.773 2.255 20.029v.004c.049.562.094 1.115.138 1.671z"/><path d="m824.728 644.793-.313-.353-.004-.004-.223-.248c.028-.024.057-.049.081-.073 9.856-8.849 10.214-25.233 1.572-40.997-.13-.244-.268-.488-.406-.731-.244-.431-.492-.857-.747-1.284-.142-.236-.284-.475-.435-.711-.272-.443-.552-.89-.849-1.333-.142-.228-.297-.459-.451-.687-.154-.227-.313-.463-.471-.695.069-.374.138-.748.203-1.117.292.406.577.817.849 1.231.162.227.313.459.463.691.288.439.569.878.841 1.316.15.24.297.479.439.719.26.427.512.853.752 1.28.142.244.28.488.414.735 8.957 16.203 8.551 33.136-1.715 42.261z"/><path d="m823.753 642.786-.179-.199-.366-.406c.041-.037.081-.073.118-.11 9.649-8.845 8.93-26.859-1.515-40.623.061-.362.126-.723.191-1.085 11.172 14.224 11.972 33.209 1.751 42.423z"/><path d="m822.676 640.73-.012-.016-.536-.585c.057-.049.11-.102.162-.15 8.418-7.878 8.024-20.663-1.052-35.256.069-.398.138-.796.207-1.19 9.832 15.36 10.287 28.905 1.231 37.197z"/><path d="m821.567 638.155-.5-.475-.089-.085c.008-.008.016-.02.024-.028 9.393-9.881 5.216-18.77-.073-30.015-.045-.093-.085-.187-.13-.28.081-.467.163-.934.24-1.402.211.451.422.894.626 1.337 5.212 11.081 9.709 20.649-.098 30.948z"/><path d="m820.364 636.432c-.024.032-.053.061-.081.093l-.605-.544c.089-.097.175-.191.256-.288 7.37-8.264 5.708-12.261 1.341-22.747-.325-.78-.662-1.601-1.02-2.458 0 0 .004-.004 0-.004.089-.512.175-1.016.256-1.523.532 1.312 1.04 2.531 1.515 3.673 4.412 10.606 6.252 15.019-1.662 23.798z"/><path d="m818.739 633.71-.093.106-.593-.553c.081-.089.162-.179.244-.264 6.078-6.643 5.176-9.458 1.341-18.758.081-.508.167-1.012.248-1.515.049.114.097.228.142.341 4.216 10.186 5.5 13.298-1.289 20.643z"/><path d="m817.431 631.654c-.171.207-.353.414-.54.63.053-.398.11-.792.171-1.186.012-.11.028-.219.045-.325 3.551-4.367 3.669-7.203 1.857-12.334.089-.544.175-1.093.26-1.637 2.44 6.361 2.635 9.563-1.793 14.852z"/><path d="m847.402 620.904-.691.431-.134-.219c-8.751-14.248-10.791-27.635-6.106-37.653.118-.252.24-.5.366-.748.228-.451.471-.894.731-1.328.138-.236.28-.467.431-.699.248-.39.508-.772.78-1.15.158-.219.317-.435.487-.65.236-.309.479-.609.735-.91.077.333.154.662.228.999.004.004 0 .004 0 .004-8.02 9.941-7.081 25.006 2.791 41.297.126.209.252.419.382.626z"/><path d="m848.572 618.841-.687.431c-.049-.077-.098-.158-.146-.236-7.414-11.953-10.36-28.041-3.1-38.254.081.357.162.715.244 1.077-6.456 9.848-3.628 24.982 3.34 36.418.117.19.231.377.349.564z"/><path d="m849.994 616.79-.699.418c-.049-.085-.102-.167-.15-.252-9.69-16.361-8.19-26.83-3.868-33.339.085.374.171.748.252 1.125-3.807 6.305-4.818 16.251 4.156 31.527.101.17.203.345.309.521z"/><path d="m851.066 615.688-.735.345c-.053-.114-.106-.228-.158-.337-.219-.471-.435-.93-.65-1.389-4.701-10.002-8.568-18.221-3.433-27.045.089.394.179.788.264 1.186-4.274 8.117-.707 15.698 3.904 25.514.171.358.341.719.512 1.085.097.214.199.426.296.641z"/><path d="m851.688 613.953c-.817-2.031-1.593-3.864-2.299-5.537-3.409-8.048-5.322-12.574-2.633-18.148.098.447.195.898.293 1.349-1.853 4.806-.069 9.023 3.088 16.482.24.565.486 1.148.739 1.751v.004c.271 1.357.544 2.73.812 4.099z"/><path d="m849.794 604.532c-1.463-3.746-2.234-6.452-1.901-9.031.634 2.957 1.268 5.967 1.901 9.031z"/><path d="m826.442 602.533c-.195.199-.394.394-.601.585-.179.167-.358.333-.54.496l-.54-.605c.232-.203.455-.41.674-.622.203-.195.402-.39.593-.589 8.353-8.507 9.263-21.467 2.746-35.951 0 0 .004 0 0-.004.097-.443.195-.882.288-1.316 7.2 15.295 6.334 29.06-2.62 38.006z"/><path d="m825.276 600.518c-.191.199-.386.394-.589.585-.138.13-.276.26-.418.39l-.544-.605c.179-.162.358-.329.528-.496.203-.195.398-.39.585-.593 7.073-7.479 7.073-19.408 3.149-30.275.106-.496.207-.983.313-1.467 4.484 11.518 4.695 24.473-3.024 32.461z"/><path d="m823.996 598.482c-.195.199-.394.39-.593.577-.089.089-.183.171-.272.256l-.548-.597c.122-.114.248-.227.37-.345.195-.187.39-.382.581-.581 4.518-4.668 7.869-12.363 3.681-24.596v-.004c.11-.512.215-1.016.317-1.519 5.053 13.455 1.372 21.82-3.536 26.809z"/><path d="m822.859 595.61c.098-.54.195-1.073.293-1.609v-.004c4.696-5.899 5.021-11.335 3.34-17.271v-.004c.114-.548.223-1.085.333-1.625 2.278 7 2.217 13.472-3.966 20.513z"/><path d="m823.716 590.962c.146-.768.293-1.536.435-2.295 0-.004.004-.004 0-.008 1.136-2.069 1.595-4.442 1.312-6.785v-.004c.146-.735.288-1.459.435-2.178.942 3.937.536 7.22-2.182 11.27z"/><path d="m841.32 583.11-.504.638c-.118-.093-.232-.187-.345-.284-5.688-4.66-8.637-11.185-8.759-19.395-.089-6.147 1.389-13.11 4.404-20.756.097.471.199.959.305 1.463-2.673 7.089-3.977 13.553-3.896 19.282.118 7.886 2.917 14.159 8.312 18.66.158.131.32.261.483.392z"/><path d="m842.421 581.041-.512.63c-.114-.093-.227-.187-.341-.284-8.995-7.573-8.975-21.796-4.701-34.521.11.512.223 1.036.341 1.576-3.738 12.05-3.514 25.156 4.79 32.246.138.122.28.239.423.353z"/><path d="m843.583 579.152-.512.63-.292-.244c-7.317-6.192-9.003-15.828-5.042-28.723.122.528.244 1.064.37 1.617v.008c-3.315 11.839-1.593 20.708 5.16 26.448.104.089.21.174.316.264z"/><path d="m843.709 576.686c-7.106-7.081-7.215-14.183-5.156-22.284.138.593.276 1.194.418 1.808-1.475 6.825-1.064 12.928 4.384 18.936.118.508.236 1.02.354 1.54z"/><path d="m842.746 572.497c-3.681-4.583-4.136-8.292-3.108-13.403.158.674.317 1.358.475 2.052v.012c-.439 3.449.061 6.24 2.178 9.369v.008c.154.65.304 1.304.455 1.962z"/><path d="m825.036 692.453c-.045.089-.085.179-.126.264l-.731-.349c.077-.167.158-.337.236-.508 4.977-10.782 10.21-32.343-7.528-59.551 0-.004-.004-.008-.008-.012.004-.003.008-.006.012-.008v-.004c.053-.398.11-.792.171-1.186.122.187.244.37.37.557.293.447.581.898.865 1.345.15.236.297.475.443.711.414.666.813 1.324 1.194 1.983.146.248.293.496.431.739.219.382.431.756.638 1.133.024.037.045.077.065.114.427.772.833 1.536 1.223 2.299.126.244.252.487.37.731.002 0 .004.002.004.004.228.455.451.906.662 1.357.085.175.167.345.248.516.24.512.471 1.02.695 1.528.049.106.093.215.142.321l.004.004c9.518 21.775 4.911 38.855.62 48.012z"/><path d="m822.956 690.531c-.073.167-.15.329-.228.492l-.735-.349c.106-.227.215-.459.317-.699 4.457-10.169 6.456-32.457-6.135-52.47v-.004c.053-.414.11-.825.167-1.239 12.014 18.477 12.395 41.504 6.614 54.269z"/><path d="m820.71 688.662c-.041.093-.085.187-.13.28l-.731-.345c.069-.142.138-.288.207-.443 3.258-7.102 8.548-24.579-4.473-46.112v-.004c.053-.422.11-.853.167-1.276 13.999 22.427 8.315 40.697 4.96 47.9z"/><path d="m819.032 687.387c-.045.098-.089.191-.134.288l-.735-.349c.069-.142.134-.284.195-.427 2.714-5.919 3.709-12.85 2.88-20.086-.731-6.391-2.836-12.964-6.281-19.619v-.004c.053-.471.11-.943.167-1.418 3.819 7.102 6.139 14.122 6.923 20.947.852 7.443-.192 14.586-3.015 20.668z"/><path d="m816.817 685.851c-.049.102-.093.203-.142.301l-.731-.349c.061-.13.126-.264.187-.398 3.506-7.622 5.472-19.31-1.552-34.919.057-.516.114-1.036.175-1.556 7.853 16.563 5.765 28.942 2.063 36.921z"/><path d="m814.587 684.453-.146.317-.735-.349c.061-.126.118-.252.179-.382 2.905-6.257 5.42-15.467.219-29.097v-.004c.057-.581.118-1.162.183-1.747 6.085 14.764 3.392 24.636.3 31.262z"/><path d="m840.678 721.456c-.276 0-.557-.008-.837-.02-.896-4.315-2.279-8.515-4.124-12.517-4.91-10.544-13.08-19.229-23.304-24.774v-.004c-.004-.305-.008-.609-.008-.922.475.256.971.528 1.479.821.232.134.467.272.703.414.504.298 1.018.615 1.544.951.228.142.455.293.687.447.504.333 1.02.683 1.54 1.048.223.162.447.321.674.487.337.248.679.504 1.024.768.219.167.435.333.654.508.532.418 1.064.853 1.601 1.312.215.183.431.366.646.557.483.427.975.869 1.458 1.328.207.195.414.39.622.593 4.355 4.228 7.966 9.161 10.681 14.589 2.274 4.568 3.941 9.414 4.96 14.414z"/><path d="m838.049 721.233-.187.028c-.215-.024-.435-.057-.65-.093-.354-2.172-.853-4.318-1.495-6.423-3.548-11.816-12.002-21.537-23.21-26.692-.016-.301-.024-.601-.032-.906 10.811 4.855 19.195 13.88 23.243 25.018 1.062 2.942 1.843 5.978 2.331 9.068z"/><path d="m835.075 720.75c-.293-.069-.585-.146-.878-.227-3.685-16.824-14.646-25.319-21.496-29.093-.024-.317-.049-.634-.069-.959 6.997 3.745 18.701 12.5 22.443 30.279z"/><path d="m832.179 719.868-.947-.37c-2.822-10.152-9.293-18.905-18.172-24.579-.045-.341-.089-.687-.126-1.044 9.508 5.878 16.397 15.182 19.245 25.993z"/><path d="m830.371 719.124c-.341-.154-.683-.317-1.02-.488-2.924-8.54-8.483-15.932-15.877-21.11-.069-.366-.134-.739-.199-1.125 8.086 5.443 14.107 13.446 17.096 22.723z"/><path d="m827.953 717.877c-.39-.223-.772-.459-1.154-.707-2.712-6.725-7.105-12.642-12.757-17.185-.114-.41-.223-.841-.321-1.288 6.45 4.932 11.381 11.579 14.232 19.18z"/><path d="m857.656 649.14c-.069-.016-.138-.028-.203-.041-.414-.085-.813-.175-1.203-.272-.268-.065-.532-.134-.788-.207-.593-.163-1.162-.345-1.698-.544-.26-.089-.512-.187-.756-.288-.487-.195-.951-.406-1.393-.63-.248-.122-.487-.248-.719-.378-.439-.244-.849-.496-1.235-.76-.232-.154-.451-.317-.666-.479-.389-.294-.762-.609-1.117-.943-.219-.195-.423-.402-.613-.609-1.844-1.959-3.082-4.41-3.563-7.057-1.004-5.237.492-11.124 2.876-15.816.142-.284.288-.565.443-.837.232-.427.471-.841.719-1.243.158-.26.317-.512.483-.76.301-.459.609-.902.922-1.32.179-.236.357-.463.54-.687.163-.199.321-.39.488-.573.199-.228.398-.443.597-.65.321-.329.638-.63.955-.902.061.313.122.617.183.93v.004c-4.315 4.006-8.922 13.793-7.41 21.699 1.154 6.025 5.659 9.994 13.041 11.506l.061.451c.019.134.035.273.056.406z"/><path d="m857.286 646.54c-5.98-1.093-9.681-3.661-11.014-7.634-2.239-6.679 2.941-15.751 6.342-20.139.069.362.138.727.203 1.089-1.5 2.046-2.809 4.226-3.908 6.513-1.597 3.372-3.218 8.243-1.865 12.278 1.211 3.616 4.615 5.984 10.12 7.049.041.279.081.564.122.844z"/><path d="m856.981 644.444c-5.013-1.105-7.939-3.206-8.711-6.248-1.044-4.144 2.295-9.287 5.586-12.68.061.333.122.666.179.999-1.118 1.196-2.124 2.492-3.006 3.872-1.263 2.019-2.637 4.977-1.97 7.609.67 2.661 3.291 4.538 7.792 5.586.045.289.086.577.13.862z"/><path d="m856.587 641.844c-3.701-1.048-5.647-2.332-6.114-4.01-.622-2.263 1.658-4.757 4.254-7.398l.171.987c-2.251 2.312-4.12 4.465-3.64 6.192.366 1.316 2.068 2.417 5.196 3.344.044.295.089.588.133.885z"/><path d="m856.315 640.072c-1.694-.463-2.864-.983-3.128-1.942-.28-1.028.573-2.239 2.178-3.925.057.337.114.674.167 1.012-.963 1.056-1.727 2.088-1.56 2.698.126.463.813.861 2.202 1.272.048.296.092.593.141.885z"/></g><path d="m1518.431 735.777v-81.66c0-2.468-2.001-4.469-4.469-4.469-2.468 0-4.469 2.001-4.469 4.469v81.66z" fill="#1d72d8"/><path d="m1534.88 692.265c0 .593-.004 1.182-.008 1.767v.004c-.008.605-.016 1.211-.028 1.808-.012.573-.024 1.142-.041 1.706l-.098 2.519c-.049 1.093-.106 2.169-.179 3.234-.148 2.549-.772 5.047-1.84 7.366-.257.547-.542 1.079-.853 1.597v.004c-.252.418-.516.821-.796 1.211v.004c-.248.341-.504.67-.768.991-.162.195-.329.386-.5.569-.24.268-.488.524-.744.768-.427.42-.876.818-1.345 1.19-.24.187-.484.374-.731.548-.49.354-.998.68-1.524.979-.244.146-.492.28-.739.41-.41.211-.829.41-1.255.597-.256.11-.512.215-.772.313-1.366.525-2.784.906-4.229 1.138-1.315.214-2.646.313-3.977.297-.276 0-.557-.008-.837-.02-.658-.032-1.316-.089-1.979-.175-.215-.024-.435-.057-.65-.093-.496-.073-.995-.167-1.495-.272-.215-.045-.427-.093-.642-.146-.292-.069-.585-.146-.878-.228-.674-.187-1.347-.405-2.019-.654l-.947-.37c-.288-.118-.577-.244-.861-.374-.341-.154-.683-.317-1.02-.488-.471-.236-.938-.488-1.398-.76-.39-.223-.772-.459-1.154-.707-4.896-3.161-9.218-8.121-12.034-15.028-.283-.704-.525-1.425-.723-2.157-.114-.41-.223-.841-.321-1.288-.089-.378-.171-.768-.248-1.17-.069-.366-.134-.739-.199-1.125-.077-.479-.15-.975-.215-1.483-.045-.341-.089-.687-.126-1.044-.089-.784-.167-1.599-.232-2.446-.024-.317-.049-.634-.069-.959-.054-.784-.096-1.59-.126-2.417-.016-.301-.024-.601-.032-.906-.033-.971-.053-1.974-.061-3.002v-.004c-.004-.305-.008-.609-.008-.922-.016-8.089.622-17.791 1.698-28.276v-.004c.057-.581.118-1.162.183-1.747.094-.898.191-1.8.293-2.706.057-.516.114-1.036.175-1.556.065-.577.134-1.154.203-1.735v-.004c.053-.471.11-.943.167-1.418v-.004c.15-1.235.301-2.478.459-3.726v-.004c.053-.423.11-.853.167-1.276v-.004c.138-1.081.28-2.165.427-3.254v-.004c.053-.414.11-.825.167-1.239v-.004c.175-1.312.356-2.629.544-3.949-.001-.007.001-.014.004-.02v-.004c.053-.398.11-.792.171-1.186.012-.11.028-.219.045-.325.585-4.103 1.207-8.227 1.857-12.334.089-.544.175-1.093.26-1.637.138-.853.276-1.71.414-2.56.081-.508.167-1.012.248-1.515v-.004c.126-.747.249-1.492.37-2.234v-.004c.089-.512.175-1.016.256-1.523.098-.565.195-1.129.288-1.69.081-.467.162-.934.24-1.402.065-.386.134-.768.199-1.146.069-.398.138-.796.207-1.19.122-.699.244-1.394.366-2.084.061-.362.126-.723.191-1.085.158-.902.321-1.796.479-2.685.069-.374.138-.748.203-1.117.057-.321.118-.638.175-.951.098-.54.195-1.073.292-1.609v-.004c.19-1.02.378-2.031.565-3.035.146-.768.293-1.536.435-2.295 0-.004.004-.004 0-.008.439-2.312.876-4.573 1.312-6.785v-.004c.146-.735.288-1.459.435-2.178v-.004c.199-.999.397-1.987.593-2.962v-.004c.114-.548.223-1.085.333-1.625.13-.642.26-1.276.39-1.901v-.004c.11-.512.215-1.016.317-1.519v-.004c.154-.727.305-1.438.455-2.145.106-.496.207-.983.313-1.467.158-.748.317-1.487.475-2.21v-.004c.098-.443.195-.882.288-1.316 3.465-15.8 6.216-25.571 6.655-23.247.122.638.252 1.312.398 2.031.098.471.199.959.305 1.463.138.67.287 1.368.447 2.092.11.512.224 1.036.341 1.576.171.764.347 1.553.528 2.369v.004c.122.528.244 1.064.37 1.617v.008c.146.638.297 1.292.447 1.958v.004c.138.593.276 1.194.418 1.808.215.938.439 1.897.666 2.885.158.674.317 1.358.475 2.052v.012c.687 2.941 1.418 6.074 2.178 9.369v.008c.154.65.305 1.304.455 1.962.203.873.406 1.756.609 2.649.118.508.236 1.02.354 1.54v.004c.097.427.195.853.292 1.284v.004c.077.333.154.662.228.999v.004c.138.597.276 1.194.41 1.8.081.357.162.715.244 1.077.13.581.264 1.166.394 1.755v.004c.085.374.171.748.252 1.125.187.833.374 1.672.561 2.519.089.394.179.788.264 1.186.134.605.268 1.211.402 1.82.098.447.195.898.292 1.349.284 1.284.565 2.568.845 3.876-.004.004-.004.004 0 .008.634 2.958 1.268 5.968 1.901 9.031-.001.004.001.009.004.012.358 1.751.716 3.52 1.077 5.306v.004c.272 1.357.544 2.73.812 4.099v.004c.012.065.024.126.036.187.061.313.122.617.183.93v.004c.236 1.227.471 2.454.707 3.689.069.362.138.727.203 1.089.352 1.877.699 3.763 1.04 5.659.061.333.122.666.179.999.236 1.304.463 2.612.691 3.921l.171.987c.158.926.314 1.854.467 2.783.057.337.114.674.167 1.012.219 1.32.433 2.643.642 3.969.049.297.093.593.142.886v.004c.045.297.089.585.138.882s.089.589.134.886c.089.581.179 1.158.264 1.739.045.288.085.577.13.861.061.418.122.833.183 1.251.041.28.081.565.122.845.085.581.167 1.162.252 1.743l.061.451c.02.134.036.272.057.406l.171 1.231v.004c.922 6.773 1.694 13.484 2.255 20.029v.004c.049.561.093 1.113.138 1.67.073.865.138 1.731.199 2.588v.004c.037.492.069.979.102 1.471.033.475.065.951.094 1.426l.069 1.097.012.256c.02.297.037.593.053.89.061 1.121.114 2.239.158 3.344.016.374.032.743.045 1.113v.004c.032.845.057 1.69.077 2.527.012.427.024.853.032 1.28.02.951.032 1.895.036 2.832v.004z" fill="url(#ab)"/><path d="m1534.523 679.637c-5.18 5.858-14.581 19.672-11.091 39.9-.256.11-.512.215-.772.313-2.819-16.04 2.336-28.134 7.26-35.541.154-.236.309-.467.467-.695.293-.427.581-.833.87-1.223.167-.228.333-.451.496-.666.394-.512.78-.995 1.15-1.442-.004 0 0-.004 0-.004.183-.219.357-.431.528-.63.325-.378.634-.723.922-1.044.037-.041.073-.077.106-.114l.012.256c.019.297.036.594.052.89z" fill="#eee"/><path d="m1534.726 684.099c-3.925 4.099-13.273 16.141-9.3 34.431-.244.146-.492.28-.739.41-4.396-19.716 6.387-32.384 9.994-35.959.016.374.032.743.045 1.113z" fill="#eee"/><path d="m1527.681 717.002c-.24.187-.484.374-.731.548-2.576-14.963 3.575-25.591 7.853-30.925.012.427.024.853.032 1.28-4.09 5.379-9.38 15.341-7.154 29.097z" fill="#eee"/><path d="m1534.872 690.737v.004c-4.809 7.421-6.876 16.288-5.846 25.071.256-.244.504-.5.743-.768-.793-7.945 1-15.935 5.111-22.78z" fill="#eee"/><path d="m1534.844 695.844c-2.707 5.474-4.015 11.533-3.807 17.636v.004c-.248.341-.504.67-.768.991-.427-7.111 1.169-14.198 4.603-20.44-.008.606-.016 1.211-.028 1.809z" fill="#eee"/><path d="m1534.803 697.55c-1.97 4.655-2.98 9.66-2.97 14.715.312-.517.596-1.05.853-1.597.145-3.614.825-7.186 2.019-10.6z" fill="#eee"/><path d="m1530.316 684.774c-12.28-14.083-15.398-27.87-9.268-40.979l.736.345c-5.981 12.791-2.904 26.282 9.145 40.099z" fill="#eee"/><path d="m1531.653 682.854c-12.017-13.781-14.824-26.239-8.579-38.082l.719.379c-6.07 11.512-3.299 23.669 8.472 37.169z" fill="#eee"/><path d="m1532.983 680.372c-12.25-14.048-14.226-22.338-8.133-34.117l.722.373c-5.972 11.547-4.099 19.306 8.024 33.209z" fill="#eee"/><path d="m1534.47 678.748c-.036-.049-.077-.093-.118-.142-4.607-5.456-7.764-9.917-9.21-14.325-1.658-5.042-1.174-10.043 1.641-16.665.053-.13.106-.256.163-.386l.743.325c-.049.118-.102.232-.15.349-5.135 12.095-2.214 18.668 6.85 29.491l.069 1.097z" fill="#eee"/><path d="m1534.194 674.498c.037.492.069.979.102 1.471-7.8-9.99-9.401-16.523-5.058-27.521.053-.142.11-.284.167-.427l.752.305c-.045.11-.089.219-.13.329-4.095 10.327-2.787 16.625 4.168 25.839-.001 0-.005 0-.001.004z" fill="#eee"/><path d="m1533.995 671.906c-5.578-8.43-6.106-14.731-2.767-22.979.045-.122.093-.244.146-.366.02.134.036.272.057.406l.171 1.231v.004c-2.694 7.171-2.259 12.773 2.255 20.029v.004c.048.562.093 1.114.138 1.671z" fill="#eee"/><path d="m1498.503 644.621-.313-.353-.004-.004-.223-.248c.028-.024.057-.049.081-.073 9.856-8.849 10.214-25.234 1.572-40.997-.13-.244-.268-.487-.406-.731-.244-.431-.492-.857-.747-1.284-.142-.236-.284-.475-.435-.711-.272-.443-.552-.89-.849-1.333-.142-.227-.297-.459-.451-.687-.154-.227-.313-.463-.471-.695.069-.374.138-.748.203-1.117.292.406.577.817.849 1.231.162.227.313.459.463.691.288.439.569.878.841 1.316.15.24.297.479.439.719.26.427.512.853.752 1.28.142.244.28.488.414.735 8.957 16.203 8.551 33.136-1.715 42.261z" fill="#eee"/><path d="m1497.528 642.614-.179-.199-.366-.406c.041-.037.081-.073.118-.11 9.649-8.844 8.93-26.859-1.515-40.623.061-.362.126-.723.191-1.085 11.172 14.224 11.973 33.209 1.751 42.423z" fill="#eee"/><path d="m1496.451 640.558-.012-.016-.536-.585c.057-.049.11-.102.162-.15 8.418-7.878 8.024-20.663-1.052-35.256.069-.398.138-.796.207-1.19 9.832 15.36 10.287 28.905 1.231 37.197z" fill="#eee"/><path d="m1495.342 637.982-.5-.475-.089-.085c.008-.008.016-.02.024-.028 9.393-9.88 5.217-18.77-.073-30.015-.045-.093-.085-.187-.13-.28.081-.467.162-.934.24-1.402.211.451.422.894.626 1.337 5.212 11.082 9.71 20.649-.098 30.948z" fill="#eee"/><path d="m1494.14 636.26c-.024.033-.053.061-.081.093l-.605-.544c.089-.098.175-.191.256-.288 7.37-8.264 5.708-12.261 1.341-22.747-.325-.78-.662-1.601-1.02-2.458 0 0 .004-.004 0-.004.089-.512.175-1.016.256-1.524.532 1.312 1.04 2.531 1.515 3.673 4.411 10.607 6.252 15.019-1.662 23.799z" fill="#eee"/><path d="m1492.515 633.538-.093.106-.593-.553c.081-.089.163-.179.244-.264 6.078-6.643 5.176-9.458 1.341-18.758.081-.508.167-1.012.248-1.515.049.114.097.227.142.341 4.216 10.185 5.499 13.297-1.289 20.643z" fill="#eee"/><path d="m1491.206 631.482c-.171.207-.353.414-.54.63.053-.398.11-.792.171-1.186.012-.11.028-.219.045-.325 3.551-4.367 3.669-7.203 1.857-12.334.089-.544.175-1.093.26-1.637 2.441 6.361 2.636 9.562-1.793 14.852z" fill="#eee"/><path d="m1521.177 620.732-.691.431-.134-.219c-8.751-14.248-10.791-27.635-6.106-37.653.118-.252.24-.5.366-.747.228-.451.471-.894.731-1.329.138-.236.28-.467.431-.699.248-.39.508-.772.78-1.15.158-.219.317-.435.488-.65.236-.309.479-.609.735-.91.077.333.154.662.228.999.004.004 0 .004 0 .004-8.02 9.941-7.081 25.006 2.791 41.297.125.209.251.419.381.626z" fill="#eee"/><path d="m1522.347 618.668-.687.431c-.049-.077-.098-.158-.146-.236-7.414-11.953-10.36-28.041-3.1-38.255.081.358.162.715.244 1.077-6.456 9.848-3.628 24.982 3.34 36.418.117.192.231.378.349.565z" fill="#eee"/><path d="m1523.769 616.617-.699.418c-.049-.085-.102-.167-.15-.252-9.69-16.361-8.19-26.83-3.868-33.339.085.374.171.748.252 1.125-3.807 6.305-4.818 16.251 4.156 31.527.102.171.203.346.309.521z" fill="#eee"/><path d="m1524.842 615.516-.735.345c-.053-.114-.106-.227-.158-.337-.219-.471-.435-.93-.65-1.389-4.701-10.002-8.568-18.221-3.433-27.045.089.394.179.788.264 1.186-4.274 8.117-.707 15.698 3.904 25.514.171.358.341.719.512 1.085.096.214.198.425.296.641z" fill="#eee"/><path d="m1525.463 613.781c-.817-2.031-1.593-3.864-2.3-5.537-3.409-8.048-5.322-12.574-2.633-18.148.098.447.195.898.292 1.349-1.853 4.806-.069 9.023 3.088 16.482.24.565.486 1.148.74 1.751v.004c.273 1.357.545 2.73.813 4.099z" fill="#eee"/><path d="m1523.57 604.359c-1.463-3.746-2.234-6.452-1.901-9.031.633 2.958 1.267 5.968 1.901 9.031z" fill="#eee"/><path d="m1500.217 602.361c-.195.199-.394.394-.601.585-.179.167-.358.333-.54.496l-.54-.605c.232-.203.455-.41.674-.622.203-.195.402-.39.593-.589 8.353-8.507 9.263-21.467 2.746-35.951 0 0 .004 0 0-.004.098-.443.195-.882.288-1.316 7.2 15.295 6.335 29.059-2.62 38.006z" fill="#eee"/><path d="m1499.051 600.346c-.191.199-.386.394-.589.585-.138.13-.276.26-.418.39l-.544-.605c.179-.163.358-.329.528-.496.203-.195.398-.39.585-.593 7.073-7.479 7.073-19.408 3.149-30.275.106-.496.207-.983.313-1.467 4.484 11.518 4.696 24.473-3.024 32.461z" fill="#eee"/><path d="m1497.772 598.31c-.195.199-.394.39-.593.577-.089.089-.183.171-.272.256l-.548-.597c.122-.114.248-.228.37-.345.195-.187.39-.382.581-.581 4.518-4.668 7.869-12.363 3.681-24.596v-.004c.11-.512.215-1.016.317-1.519 5.052 13.455 1.371 21.82-3.536 26.809z" fill="#eee"/><path d="m1496.634 595.438c.098-.54.195-1.073.292-1.609v-.004c4.697-5.899 5.021-11.335 3.34-17.271v-.004c.114-.548.223-1.085.333-1.625 2.279 7 2.219 13.472-3.965 20.513z" fill="#eee"/><path d="m1497.491 590.79c.146-.768.292-1.536.435-2.295 0-.004.004-.004 0-.008 1.136-2.069 1.595-4.442 1.312-6.785v-.004c.146-.735.288-1.458.435-2.178.943 3.937.536 7.22-2.182 11.27z" fill="#eee"/><path d="m1515.095 582.938-.504.638c-.118-.093-.232-.187-.345-.284-5.688-4.66-8.637-11.185-8.759-19.395-.089-6.147 1.389-13.11 4.404-20.756.098.471.199.959.305 1.463-2.673 7.089-3.977 13.553-3.896 19.282.118 7.886 2.917 14.159 8.312 18.66.158.131.321.261.483.392z" fill="#eee"/><path d="m1516.196 580.869-.512.63c-.114-.093-.228-.187-.341-.284-8.995-7.573-8.974-21.796-4.701-34.521.11.512.224 1.036.341 1.576-3.738 12.05-3.514 25.156 4.79 32.246.139.121.281.239.423.353z" fill="#eee"/><path d="m1517.358 578.98-.512.63-.292-.244c-7.317-6.192-9.003-15.828-5.042-28.723.122.528.244 1.064.37 1.617v.008c-3.315 11.839-1.593 20.708 5.16 26.448.105.089.21.174.316.264z" fill="#eee"/><path d="m1517.484 576.514c-7.106-7.081-7.215-14.183-5.156-22.284.138.593.276 1.194.418 1.808-1.475 6.825-1.064 12.928 4.384 18.936.118.508.236 1.02.354 1.54z" fill="#eee"/><path d="m1516.521 572.325c-3.681-4.583-4.136-8.292-3.108-13.403.158.674.317 1.358.475 2.052v.012c-.439 3.449.061 6.24 2.178 9.369v.008c.154.65.305 1.304.455 1.962z" fill="#eee"/><path d="m1498.812 692.281c-.045.089-.085.179-.126.264l-.731-.349c.077-.167.158-.337.236-.508 4.977-10.782 10.21-32.343-7.528-59.551 0-.004-.004-.008-.008-.012.004-.003.008-.006.012-.008v-.004c.053-.398.11-.792.171-1.186.122.187.244.37.37.557.293.447.581.898.865 1.345.15.236.297.475.443.711.414.666.812 1.324 1.194 1.983.146.248.292.496.431.739.219.382.431.756.638 1.134.024.037.045.077.065.114.427.772.833 1.536 1.223 2.299.126.244.252.488.37.731.002 0 .004.002.004.004.228.455.451.906.662 1.357.085.175.167.345.248.516.24.512.471 1.02.695 1.528.049.106.093.215.142.321l.004.004c9.517 21.774 4.91 38.854.62 48.011z" fill="#eee"/><path d="m1496.732 690.359c-.073.167-.15.329-.228.492l-.735-.349c.106-.228.215-.459.317-.699 4.457-10.169 6.456-32.457-6.135-52.47v-.004c.053-.414.11-.825.167-1.239 12.013 18.476 12.394 41.504 6.614 54.269z" fill="#eee"/><path d="m1494.485 688.49c-.041.093-.085.187-.13.28l-.731-.345c.069-.142.138-.288.207-.443 3.258-7.102 8.548-24.579-4.473-46.112v-.004c.053-.423.11-.853.167-1.276 14 22.427 8.315 40.697 4.96 47.9z" fill="#eee"/><path d="m1492.807 687.214c-.045.097-.089.191-.134.288l-.735-.349c.069-.142.134-.284.195-.427 2.714-5.919 3.709-12.85 2.88-20.086-.731-6.391-2.836-12.964-6.281-19.619v-.004c.053-.471.11-.943.167-1.418 3.819 7.102 6.139 14.122 6.923 20.947.853 7.444-.191 14.587-3.015 20.668z" fill="#eee"/><path d="m1490.593 685.679c-.049.102-.094.203-.142.301l-.731-.349c.061-.13.126-.264.187-.398 3.506-7.622 5.473-19.31-1.552-34.919.057-.516.114-1.036.175-1.556 7.852 16.562 5.764 28.942 2.063 36.921z" fill="#eee"/><path d="m1488.362 684.281-.146.317-.735-.349c.061-.126.118-.252.179-.382 2.905-6.257 5.42-15.467.219-29.097v-.004c.057-.581.118-1.162.183-1.747 6.086 14.763 3.392 24.636.3 31.262z" fill="#eee"/><path d="m1514.453 721.284c-.276 0-.557-.008-.837-.02-.896-4.315-2.279-8.514-4.124-12.517-4.91-10.544-13.08-19.229-23.304-24.774v-.004c-.004-.305-.008-.609-.008-.922.475.256.971.528 1.479.821.232.134.467.272.703.414.504.298 1.018.615 1.544.951.228.142.455.293.687.447.504.333 1.02.683 1.54 1.048.223.163.447.321.674.488.337.248.678.504 1.024.768.219.167.435.333.654.508.532.418 1.064.853 1.601 1.312.215.183.431.366.646.557.483.427.975.869 1.458 1.328.207.195.414.39.622.593 4.355 4.228 7.966 9.16 10.681 14.589 2.274 4.567 3.942 9.413 4.96 14.413z" fill="#eee"/><path d="m1511.825 721.061-.187.028c-.215-.024-.435-.057-.65-.093-.354-2.172-.853-4.318-1.495-6.423-3.548-11.816-12.002-21.537-23.21-26.692-.016-.301-.024-.601-.032-.906 10.811 4.855 19.195 13.88 23.243 25.018 1.061 2.942 1.842 5.978 2.331 9.068z" fill="#eee"/><path d="m1508.85 720.577c-.293-.069-.585-.146-.878-.227-3.685-16.824-14.646-25.319-21.496-29.093-.024-.317-.049-.634-.069-.959 6.997 3.746 18.702 12.501 22.443 30.279z" fill="#eee"/><path d="m1505.954 719.696-.947-.37c-2.822-10.152-9.293-18.905-18.172-24.579-.045-.341-.089-.687-.126-1.044 9.509 5.878 16.398 15.182 19.245 25.993z" fill="#eee"/><path d="m1504.146 718.952c-.341-.154-.683-.317-1.02-.488-2.924-8.54-8.483-15.932-15.877-21.11-.069-.366-.134-.739-.199-1.125 8.086 5.443 14.107 13.446 17.096 22.723z" fill="#eee"/><path d="m1501.729 717.705c-.39-.223-.772-.459-1.154-.707-2.712-6.725-7.105-12.642-12.757-17.185-.114-.41-.223-.841-.321-1.288 6.449 4.932 11.381 11.578 14.232 19.18z" fill="#eee"/><path d="m1531.431 648.968c-.069-.016-.138-.028-.203-.041-.414-.085-.813-.175-1.203-.272-.268-.065-.532-.134-.788-.207-.593-.163-1.162-.345-1.698-.544-.26-.089-.512-.187-.756-.288-.487-.195-.951-.406-1.393-.63-.248-.122-.488-.248-.719-.378-.439-.244-.849-.496-1.235-.76-.232-.154-.451-.317-.666-.479-.389-.294-.762-.609-1.117-.943-.219-.195-.423-.402-.614-.609-1.844-1.959-3.082-4.41-3.563-7.057-1.004-5.237.492-11.124 2.876-15.816.142-.284.288-.565.443-.837.232-.427.471-.841.719-1.243.158-.26.317-.512.484-.76.301-.459.609-.902.922-1.32.179-.236.358-.463.54-.687.162-.199.321-.39.488-.573.199-.228.398-.443.597-.65.321-.329.638-.63.955-.902.061.313.122.618.183.93v.004c-4.315 4.006-8.922 13.793-7.41 21.699 1.154 6.025 5.659 9.994 13.041 11.506l.061.451c.02.134.036.273.056.406z" fill="#eee"/><path d="m1531.062 646.368c-5.98-1.093-9.681-3.66-11.014-7.634-2.239-6.679 2.941-15.751 6.342-20.139.069.362.138.727.203 1.089-1.5 2.046-2.809 4.226-3.908 6.513-1.597 3.372-3.218 8.243-1.865 12.277 1.211 3.616 4.615 5.984 10.12 7.049.04.28.081.565.122.845z" fill="#eee"/><path d="m1530.757 644.272c-5.013-1.105-7.939-3.206-8.71-6.248-1.044-4.144 2.295-9.287 5.586-12.68.061.333.122.666.179.999-1.118 1.196-2.124 2.492-3.006 3.872-1.263 2.019-2.637 4.977-1.97 7.609.67 2.661 3.291 4.538 7.792 5.586.044.289.084.577.129.862z" fill="#eee"/><path d="m1530.363 641.671c-3.701-1.048-5.647-2.332-6.114-4.01-.622-2.263 1.658-4.757 4.254-7.398l.171.987c-2.251 2.312-4.12 4.465-3.64 6.192.366 1.316 2.068 2.417 5.196 3.344.043.296.088.589.133.885z" fill="#eee"/><path d="m1530.091 639.9c-1.694-.463-2.864-.983-3.128-1.942-.28-1.028.573-2.239 2.178-3.925.057.337.114.674.167 1.012-.963 1.056-1.727 2.088-1.56 2.698.126.463.813.861 2.202 1.272.047.296.092.593.141.885z" fill="#eee"/><path d="m1129.865 735.777h-187.159-125.573l-159.075 9.651-156.468 2.244-14.515 160.647c0 15.817 128.523 147.166 128.523 147.166s615.202 15.638 831.314-64.507c57.552-237.203-441.118-173.236-441.118-190.994 0-28.762 127.004-53.603 174.164-64.207z" fill="#ccdffd"/><path d="m1179.956 735.777h141.94 187.819s-28.209 12.975-33.881 12.72c-15.46 2.016-60.028 18.926-67.285 42.416-4.541 14.698 6.106 30.712 31.262 44.426 12.043 6.565 32.092 12.134 34.502 12.535 45.486 7.575 108.408 89.904-16.018 141.801-71.862 29.973-289.493 60.092-424.352 60.089 110.545-7.286 208.101-19.135 291.958-40.542 34.063-8.695 64.244-21.299 86.443-40.297 11.385-9.754 18.538-21.369 18.778-34.965.57-31.083-36.449-55.814-73.901-68.939-146.857-51.466-232.429-34.911-393.146-62.727-21.438-3.71-32.411-8.731-38.191-14.562-8.957-9.036-3.384-24.808 13.619-29.404 55.261-14.936 106.498-14.492 170.274-20.711 6.493-.63 13.206-1.241 20.088-1.841h50.091z" fill="#b2cef6"/><path d="m133.402 735.83 565.899-.172c7.026.246 12.763 9.317 13.246 16.331.464 6.739-7.714 10.285-14.32 11.701-46.052 9.874-93.374 13.308-140.435 11.417-54.78-2.202-99.808 19.845-49.211 27.432 125.326 18.792 292.464 54.343 292.534 107.438.031 23.9-124.574 44.932-147.605 51.32-47.12 13.07-95.225 53.612 64.99 76.476 35.977 5.134 115.604 16.275 184.908 16.275-33.785 5.85-72.523 4.169-104.607 4.585-153.862 1.994-444.525 18.173-550.817-20.859-63.699-23.391 38.668-50.981 116.625-67.347 72.547-15.23 29.578-40.883-93.108-69.87-64.166-15.16-115.805-25.027-177.482-57.606-39.77-21.007-53.478-63.46-25.687-88.148 5.757-5.114-11.018-13.614-1.562-16.855 11.293-3.872 49.634-2.01 66.632-2.118z" fill="#e3edfe"/><path d="m1063.517 876.726c-2.561 10.334-19.868 19.038-40.307 24.14-20.449 5.102-43.889 7.203-66.898 9.234-28.392 2.501-167.14 7.093-207.878 6.233-53.132-1.121-106.265-2.231-159.407-3.352-6.553-.14-13.115-.28-19.678-.42h-.01c-4.021-.08-8.043-.17-12.065-.25-10.475-.23-21.279-.48-30.703-2.521s-17.177-6.353-16.106-10.974c1.51-6.563 18.037-9.834 32.403-11.875h.01c.45-.06.891-.12 1.331-.18 20.878-2.881 42.047-6.202 58.885-12.385 16.847-6.183 28.772-15.837 25.431-25.421-4.462-12.765-32.664-20.839-58.795-26.531-22.53-4.922-45.749-8.593-69.149-13.216-46.699-9.224-42.347-32.984-42.347-32.984 0-15.627 27.861-26.571 43.358-28.552 25.12-3.222 51.172-5.372 76.952-7.223 24.57-1.771 49.211-3.321 73.911-4.672h290.252c.761.2 1.491.42 2.191.67 4.972 1.751 7.713 5.092 4.332 7.473-2.522 1.791-7.473 2.521-12.055 3.091-20.189 2.531-40.707 4.532-61.426 6.003-24.03 1.701-52.232 3.842-63.136 13.486-9.824 8.704.48 19.608 16.837 26.091s37.596 9.854 57.124 14.286c29.043 6.593 127.444 33.504 146.312 40.817 18.856 7.313 33.362 17.988 30.631 29.032z" fill="url(#ac)"/><path d="m1288.337 949.493c-7.338 0-13.309-5.969-13.309-13.309s5.969-13.309 13.309-13.309 13.309 5.969 13.309 13.309-5.971 13.309-13.309 13.309zm0-24.683c-6.271 0-11.372 5.103-11.372 11.372 0 6.273 5.103 11.372 11.372 11.372s11.372-5.103 11.372-11.372c0-6.27-5.103-11.372-11.372-11.372z" fill="#78a9ef"/><path d="m1288.337 957.252c-11.616 0-21.068-9.453-21.068-21.069s9.453-21.068 21.068-21.068c11.616 0 21.068 9.45 21.068 21.068s-9.452 21.069-21.068 21.069zm0-40.204c-10.551 0-19.133 8.584-19.133 19.133s8.584 19.133 19.133 19.133c10.551 0 19.133-8.584 19.133-19.133 0-10.548-8.585-19.133-19.133-19.133z" fill="#78a9ef"/><path d="m1288.337 965.982c-16.432 0-29.798-13.369-29.798-29.798s13.367-29.798 29.798-29.798c16.432 0 29.801 13.369 29.801 29.798s-13.372 29.798-29.801 29.798zm0-57.664c-15.364 0-27.863 12.499-27.863 27.863s12.499 27.863 27.863 27.863c15.366 0 27.865-12.499 27.865-27.863 0-15.362-12.499-27.863-27.865-27.863z" fill="#78a9ef"/><path d="m1288.337 975.681c-21.781 0-39.499-17.721-39.499-39.499 0-21.779 17.719-39.499 39.499-39.499 21.781 0 39.499 17.719 39.499 39.499s-17.718 39.499-39.499 39.499zm0-77.063c-20.713 0-37.564 16.85-37.564 37.564 0 20.713 16.85 37.564 37.564 37.564s37.564-16.85 37.564-37.564-16.853-37.564-37.564-37.564z" fill="#78a9ef"/><path d="m1288.337 984.413c-26.594 0-48.229-21.637-48.229-48.229s21.635-48.231 48.229-48.231 48.229 21.637 48.229 48.229c0 26.591-21.637 48.231-48.229 48.231zm0-94.523c-25.527 0-46.294 20.767-46.294 46.294s20.769 46.294 46.294 46.294 46.294-20.767 46.294-46.294c0-25.528-20.767-46.294-46.294-46.294z" fill="#78a9ef"/><path d="m195.132 807.68 12.828 13.235-12.828-4.096-30.035-8.634v-31.13z" fill="#eaebeb"/><path d="m83.766 694.146v90.659l-30.034-8.64v-112.636z" fill="#eaebeb"/><path d="m139.453 750.913v49.899l-30.042-8.633v-71.891z" fill="#eaebeb"/><path d="m30.042 639.368.5 130.137-30.542-8.789v-151.796z" fill="#eaebeb"/><path d="m1417.088 846.848 19.421-13.371c-2.094-1.296-4.248-2.569-6.264-3.926l-22.725 15.638c3.116.62 6.308 1.175 9.568 1.659z" fill="#78a9ef"/><path d="m1403.043 844.142 24.236-16.672c-1.944-1.437-3.785-2.923-5.495-4.46l-27.502 18.917c2.839.797 5.76 1.538 8.761 2.215z" fill="#78a9ef"/><path d="m1468.552 848.533 5.761-.66c-2.79-.815-9.199-2.487-11.904-3.388l-6.793 4.705c4.385-.098 8.699-.32 12.936-.657z" fill="#78a9ef"/><path d="m1432.549 848.581 14.329-9.856c-1.977-.872-3.897-1.79-5.792-2.735-.429-.214-.848-.433-1.271-.651l-17.729 12.193c3.422.427 6.909.778 10.463 1.049z" fill="#78a9ef"/><path d="m1449.542 849.248 8.811-6.115c-2.617-.93-5.235-1.825-7.749-2.855l-12.583 8.654c3.787.196 7.628.305 11.521.316z" fill="#78a9ef"/><path d="m1378.173 836.531 34.43-23.685c-1.285-1.987-2.401-3.974-3.213-6.03l-38.452 26.449c2.303 1.14 4.719 2.23 7.235 3.266z" fill="#78a9ef"/><path d="m1367.522 831.496 40.761-28.039c-.659-2.554-.853-5.245-.666-7.843l-46.505 32.05c2.007 1.326 4.148 2.605 6.41 3.832z" fill="#78a9ef"/><path d="m1342.036 791.336c-.634 2.229-.967 4.499-.967 6.809 0 .682.037 1.359.092 2.034l73.122-50.298c-6.014.981-11.788 2.203-17.271 3.639z" fill="#78a9ef"/><path d="m1358.135 825.591 50.413-34.678c1.523-5.355 5.157-10.239 9.742-14.697l-65.61 44.884c1.662 1.543 3.483 3.043 5.455 4.491z" fill="#78a9ef"/><path d="m1437.305 762.631c6.862-3.582 14.542-6.699 22.504-9.577 4.673-1.689 9.449-3.084 14.298-4.17l1.727-.387c-3.586-.324-12.083-1.094-15.786-1.248z" fill="#78a9ef"/><path d="m1442.173 747.179-96.192 66.17c1.209 1.819 2.635 3.592 4.253 5.316l104.068-71.585c-1.347-.023-2.695-.039-4.052-.039-2.717.001-5.41.046-8.077.138z" fill="#78a9ef"/><path d="m1344.389 785.597 42.045-28.92c-20.509 6.93-35.672 17.107-42.045 28.92z" fill="#78a9ef"/><path d="m1389.987 840.766 29.198-20.096c-1.663-1.669-3.244-3.322-4.587-5.075l-32.613 22.433c2.576.969 5.247 1.88 8.002 2.738z" fill="#78a9ef"/><path d="m1421.862 748.79-80.105 55.102c.531 2.223 1.367 4.403 2.488 6.53l91.485-62.931c-4.723.294-9.352.731-13.868 1.299z" fill="#78a9ef"/><path d="m344.265 967.842-23.86-16.412c4.745 6.426 13.069 12.071 23.86 16.412z" fill="#b2cef6"/><path d="m316.301 942.474 44.309 30.477c2.093.495 4.239.95 6.434 1.36l-51.077-35.135c.007 1.115.122 2.212.334 3.298z" fill="#b2cef6"/><path d="m316.777 933.606 61.624 42.39c1.703.187 3.424.353 5.168.49l-65.877-45.316c-.363.801-.667 1.615-.915 2.436z" fill="#b2cef6"/><path d="m320.238 926.792 72.952 50.181c1.323.031 2.653.047 3.993.047.176 0 .351-.002.527-.004l-75.896-52.208c-.562.652-1.092 1.313-1.576 1.984z" fill="#b2cef6"/><path d="m325.433 921.168 80.845 55.61c1.371-.072 2.729-.158 4.075-.261l-82.899-57.026c-.701.551-1.374 1.111-2.021 1.677z" fill="#b2cef6"/><path d="m331.868 916.4 86.266 59.342c1.252-.156 2.491-.324 3.718-.509l-87.608-60.263c-.815.465-1.607.943-2.376 1.43z" fill="#b2cef6"/><path d="m339.314 912.325 89.655 61.671c1.149-.228 2.286-.468 3.408-.722l-90.375-62.167c-.918.395-1.812.801-2.688 1.218z" fill="#b2cef6"/><path d="m347.656 908.865 91.237 62.76c1.055-.295 2.093-.603 3.117-.921l-91.385-62.861c-1.005.333-1.996.674-2.969 1.022z" fill="#b2cef6"/><path d="m356.848 905.993 91.118 62.678c.964-.361 1.91-.732 2.838-1.114l-90.7-62.389c-1.101.263-2.187.538-3.256.825z" fill="#b2cef6"/><path d="m366.902 903.713 89.282 61.414c.868-.429 1.715-.868 2.542-1.315l-88.27-60.719c-1.198.194-2.382.401-3.554.62z" fill="#b2cef6"/><path d="m377.877 902.066 85.617 58.895c.765-.505 1.504-1.02 2.216-1.543l-83.951-57.75c-1.307.119-2.602.25-3.882.398z" fill="#b2cef6"/><path d="m389.892 901.134 79.872 54.941c.64-.595 1.247-1.2 1.822-1.814l-77.42-53.254c-1.434.027-2.858.07-4.274.127z" fill="#b2cef6"/><path d="m403.19 901.083 71.56 49.225c.476-.716.903-1.442 1.291-2.179l-68.058-46.814c-1.586-.099-3.182-.175-4.793-.232z" fill="#b2cef6"/><path d="m418.298 902.281 59.592 40.993c.22-.911.365-1.83.443-2.76l-54.397-37.419c-1.849-.303-3.728-.574-5.638-.814z" fill="#b2cef6"/><path d="m444.657 908.149c-2.52-.852-5.148-1.635-7.871-2.349l40.898 28.134c-.412-1.451-.999-2.875-1.75-4.27z" fill="#b2cef6"/></svg>